<mxfile host="65bd71144e">
    <diagram id="7q0_iHb0c9QDFyxzSuzX" name="第 1 页">
        <mxGraphModel dx="3406" dy="-149" grid="1" gridSize="10" guides="1" tooltips="1" connect="1" arrows="1" fold="1" page="1" pageScale="1" pageWidth="827" pageHeight="1169" math="0" shadow="0">
            <root>
                <mxCell id="0"/>
                <mxCell id="1" parent="0"/>
                <mxCell id="2" value="&lt;div style=&quot;border-color: rgb(0, 0, 0); color: rgb(255, 0, 0); font-family: Helvetica; font-style: normal; font-variant-ligatures: normal; font-variant-caps: normal; font-weight: 400; letter-spacing: normal; orphans: 2; text-align: left; text-indent: 0px; text-transform: none; widows: 2; word-spacing: 0px; -webkit-text-stroke-width: 0px; text-decoration-thickness: initial; text-decoration-style: initial; text-decoration-color: initial; font-size: 12px;&quot;&gt;&lt;/div&gt;&lt;font color=&quot;#ff0000&quot;&gt;&lt;span style=&quot;font-size: 24px;&quot;&gt;&amp;nbsp; &amp;nbsp; 1、计算属性是基于响应式系统的，妙的是Vue基于响应式系统，做了缓存的操作。&lt;br&gt;&amp;nbsp; &amp;nbsp; 2、Vue在内部定义了脏数据变量，只有当脏数据为true时，Vue会重新计算并缓存其结果，并将脏数据重置为false，下次就可以直接使用缓存结果，而不需要重新计算。&lt;br&gt;&amp;nbsp; &amp;nbsp; 3、只有当数据发生改变时，会将脏数据重置为true，重新调用依赖计算结果，并返回新值缓存新值，同时脏数据重置为false。&lt;br&gt;&lt;/span&gt;&lt;br&gt;&lt;/font&gt;" style="text;whiteSpace=wrap;html=1;labelBackgroundColor=#FFFF00;" parent="1" vertex="1">
                    <mxGeometry x="-690" y="1490" width="380" height="370" as="geometry"/>
                </mxCell>
                <mxCell id="6" value="" style="shape=image;verticalLabelPosition=bottom;labelBackgroundColor=default;verticalAlign=top;aspect=fixed;imageAspect=0;image=data:image/png,iVBORw0KGgoAAAANSUhEUgAAAssAAANqCAYAAAB7PwYkAAAAAXNSR0IArs4c6QAAAARnQU1BAACxjwv8YQUAAAAJcEhZcwAADsMAAA7DAcdvqGQAAJcbSURBVHhe7f3vr2RXnef58h+0eERLlFoly1PtmeKaKV9f011YxsZzfYc0poxSkHZJnqnGJnOA9K8HloXcWWUjRsZ4SHm6jK6N7JvW0CZFW6boVAmD8oFbRiokixFTUgnUCCGkVj8ewT+wbqy994r47m9811rftWNHnDgR7wcvndhrfdfaO+KcE/E5K1dEfuD/9a/vDP/yT28JN/7Lmzc251wAAADASfvAx26/O/y3/49bw3/z3/7ZxuacCwAAADhpH/jXd/y/w393823hX/53t2xszrkAAACAk/aBP//E/yf86Uc/Fv7ln/4/NzbnXAAAAMBJ+8DH7/wfw0f++38VbvrIrRubcy4AAADgpBGWAQAAgAzCMoBZfeMb33CxxgIAsG8IywBmFYPwjbd8tIiwDAA4LQjLAGZFWAYAHBLCMoBZEZYBAIfklITl8+Hj338vfP5HK3c/atXtk9U17/+1HqmHPxde+OlXwzPPGn2Dt975QAjv3GT2HawXPxzC+zeEF6w+BzMsX/7nIfxq8Vgu/OYyYRkAcHqcirB86yuL0Pn9V8PNRt/uDSH4la8ZfRJheTbPPhxe+elj4UsPG32bqITlF777wUW4+3B4y+ib2yNf+Z/CP/5vnw6PGH1LD3w+/ON3Ph/+V6tvVh8NP3t/EWwnBua1sPzYvwi/H0JyaiMsAwBOi1MQlr8W7t6rwOkNy5jNSYTluLr6qw+Gn33Z6NuC//Xfng//+G//B7MvcQXq2dwUfrMIuL//7keNvjIdlp9/858tgve/CM+LNsIyAOC02P+w/NlXw6cJy8dt52F5elCc5n8I//E758M/fOV2oy+5Pbzxv9UD9awm/sFAWAYAHJJTHpbt4Kq3bXTHsebRq2Lf80/Cxz+7GrM0qnkvfPrr5/v24Tpkn7S6vtX2i17mPAs3f/0nom7Buh/e6/YYwuErydUzazV3fPuxVb+u6ULrw+Fs9zX2L25/5Ex4prstwmyqW/b1Xvj2J1ZzmUG1r091Z6+uxq5553PhjuW4BX3fdH/nE+FL74iawVpY7kJibfvFEF4XIVfSgbdbDZY1Iuyu9Y38T+GNTy7quq0XVn/vPz6wOlfUrVCL/vH19NfctX3y0+EfRJ2epzdsx2jcs01YBgAckj0NyzpwKssg3BCWrXFqH3QKrzKY3/z1qyqc2uc0dSHXDrf9NV0Nty7b+u0mU67bZQi4o8C6aJNBsQ+nMeSmtiHspuCZQnJ3HPseCy+8E0PyEEJTsF6GaRFEh7blsSMsL3VjCyvLRn93X0aBebgvMvxnVpa7N/WV9uumoClXeYe2VegcwvRo20RmBbkLxEM4lu3S2vxaP3f5mvqa//hvx3ufu4Cd2d7R7dtu3LtMWAYAHJLjWVk2g7EIq8N5livJWTOE5dx9UvWu63YxgqKWCY6jIDoKvHJOOyyP51I1s4Xlft61Md38qzH9irn8QyDV6GvoV1PzWzAy2yFU4DX3Fw+rxDrwzvHmPmvPc79yLUL4cjV5PE8pLE/ZijEOy38a/iE+nm/+qWgjLAMATg/CcmorrAKPzRCWu3Yr8I7fzDhbWM4FYakLpCpMdvoA240dhVYZbK2wvB5uR6u9s4XlIbRnpPm7c+s/FsxrqOxXzqzwjgOnvUUjt3psBV2tHKiHVeU1KlxnwnrR5LDch+Twq38W/uGxVUgmLAMAThvCcmojLC/C5Q7C8uwry5kxij8sV1aWzRVetQWiumVCymzNGMmsZidqVTunX2nOr06bXPu3x6yV5fDjG0UbYRkAcHoQllNb8TzSDGH5hLZhFANlLlDLoLpRWFbbJWYLy+rcGet7mBe6edfvc3HPshGWu5VhGXhbwrKrthKonWG5uN0igz3LAIBjd8rDciYYL+qbw/JCP3Ycbtff4JfqHIE1u1o9BO7RHMMb/EQI9163R/qUi1EwXITF1fEQOq03+JkhuC0sd2HVmHsVjIdzjdoGQ7Bea0+G0Jvtj3QwHo7XHpOotPVAbWXoV2v7sLwKvNab+3JmWFnWK9um2hwWPg0DAIBTH5aXIXMQ36DXBcoJYXnVPp5P9vdS2F1ZXd/4ekasFXDRr881Z1juiIDYMVZj+1C7MgqgoxBcC8vjedZWddfq4rxq9Tlba8znOOfoY/G6vv4+rIXlYd9yLiSmleRODJ+lrRmKuYI8BPAlK9Au35w30EFc93fW39znWu1OJuxXjgjLAIBDsv9hGafPKFSfUg1Bccr2hv3H/+AHAEBEWMb8DiEsL3R7l0eBud/KMNoyobZlHIZh+0XjXuVEh+UbL//zxeP4gfCby4RlAMDpQ1jG/A4kLEddYFbbMUbbMA4uKC/EVfWJQTlaC8sL3epy3NoyhGbCMgDgtCAsA5iVFZY1wjIA4LQgLAOYFWEZAHBICMsAZhWDsIc1FgCAfbOXYZnQDQAAgH1AWD6lLjx+yWyvKY2LfZJVo3nrPOaca04ndR9Lta3XlKufct+sMVPmAQDgNCAsb1EMEF7W+JIpY6I0Tp470bUeU8dZ5pyrVencrdc111yxViv1RXK8lOsrjcmxxkyZBwCA04CwvEXeUDFXYKnRY+RxqU+2TaXnsnjrtiV3/inXtelcsk6PKfVZSjWe8Voc42GNBQDgtDnasHzLfU+GC4+cC7cYfUu3nQsPPf5kuOc2o8/BCgzetiQFjxbWPJHVJ9vS7dIckrfOa+75WuXOH9stVm2S66+Nizw1XulatVK/HK/l+mvjAAA4rY40LN8bzi5e3M/eZfWt3P7gIjw8eK/Z52EFCG9bTesYWT/lfJa55knmnm8OuWuaeq0t42KtlzU+svpSW6kvJ9dfGwcAwGl1nGH5rvOLF/fz4Xarb8kXqEtigPCyxku6pnYspXNIuXZJzyPJfj1OkmNqWuu3RV6HdU2bXGfLWG9tqa50/aU+S+yT/enYIscBAHCaHWFYvjPc88il8NB9dxp9K65tGhVWaPC2WWSdHjNljlJbTW3M1DlzrPptSeeT5/VcQ7rWxGrL0XO1jI2s8ZHVVxpTm0v2T5kDAIDT5vjCsmsfsi9Q11ihwdtmkXW52yW5Ou/4JNaXxrTOl0y9jims+aLUp2tKYyy5+pZ5vLWlOqtPtun+3FypXY/NSTUAAJx2RxeWu33ItRXjbpvG9Df2JVZo8Lal9qmsufSxhxyTxsmvWq7dY5Oxc5nrfs0xT6z1ssZHVm2ka6zbVlutttQOAMBpdGRheTdv7EtiaPCyxue0jpP1epy8XWONS/PVpHEl3rq51a4ztbdcX20uD29tqc7q023yuHZOXZsjxwAAcJodVVju9iHX3tjXbdPY7I19iRUavG05qVZ/rcnVxXaLVSvlajxjczYZO4fafWq5vtpcHrHWyxofWX2t9ZLsz9XW5gAA4DQ5orC8uzf2JVZo8LZZZF3udos0To/3zJermXot0SZj52CdX7d5rzFXN+U+bjKXVVMaV5tT9sfbOXIMAACn2fGE5R2+sS+xQoO3TbICiHVcmyeSdbLeaivJ1XnHWzYZOwfr/LrNe42pbsr4WDOVNZenLSn1RbI/V1ubAwCA0+RowrJrH7Lr85d9WoJEqbZlntSu+1KbbNc1ubacXG3LHNomY+egz7/JfYw1Vp1nrDbHdWhWbVTqi2R/rrY2BwAAp8mRhOXdvrEv8gSJdHtKuGgdY51XHqc2ebvEmsNqt6RzTGHNNxc5f+1cU/tb70Op3jOXVaPb0rF3vhbWHAAAnCZHEZb34Y19OVMDxRxBpBRoSn2R1VeqP02892PK/W0ZU6ud8/He5n0GAOA0O4KwvPs39gEAAOAwHM8b/AAAAIBGhGUAAAAgg7AMAAAAZBCWAQAAgAzCMgAAAJBBWAYAAAAyCMsAAABABmEZAAAAyCAsAwAAABnHEZYfvRo+/6P3Vl75ml13Kj0dLl97N7y19Ea4YNYBAACg1ZGtLJ8PH//+5mH51lcWc3z/1XCz0XeSzjx3jbAMAAAwI8LyBIRlAACA40BYnoCwDAAAcBwIy1b/cn/zT8LHP5v6vhbulvuelU9//byYp+L+y+HKtXfD5Yu6b9h//PLTq7aLbwx7ket7krNh2Txff64rzz0g2hb0+eS1SE+8Hq5fvx6uv/aU3Q8AAHAACMtLfRgehd7ujYEyMPc2X1l+IFx6cxFE37wczsj2LqheC5fuH45jyB2F1cy4waZheX38cD4rMBOWAQDAESAsD27++k+MANzX61XjWbZh6GC8cOHlfBBOSlstNgvL/fHaand3nfb5AAAADh1hedAFYLW1YknVz7Nn2RdWuwC9aB/bQlgeatbPFY1DPQAAwLEgLA9aAvA8YXkIt2kl2VjB7YPyOKhubWXZrAEAADhuhOVBtw3jR1fDrardMldY7gNqH4ZjMJb7h3P7hbcWlteOAQAAQFheGj7twhGC+2C9/sa/dn0gvvLc5UVQXd/qoPcw92E4rjY3huVMMI5zyXCc5netLqc3+L39YviM1Q8AAHAAjiIs9+F2EYTX6MBrfTycHYr1Huemj46T0ke1mR/Rtgq1nRic9XaNwl7j0SpxOk8nBvMU1McryatALljXdvbF8HYMy9d/EJ4/q/oAAAAOxJGtLGNOj79GWAYAAIeNsIxp0soyn7MMAAAOGGEZjZ4K3+m2X1wPbz9/zugHAAA4HIRlAAAAIIOwDAAAAGQQlgEAAIAMwjIAAACQQVgGAAAAMgjLMF14/JLZvqltzXvSpt6vfXuc47gaaxx63sdn249jy/yl2inXaY3Z9v312pfr2KXW+zz3YzRlvtyYXX7/dnmuQ9Ty+JVq9+X7QFiGSf+AxuMcWVfTWj8nfd0l1viSKWMiPU5egybralrrk9o4T38ra57Iqs2xxkdWbY01T8nUOTx1pZqpfVqs1Up9kRyvWf21MduwL9cxt3gfcnL1Vnukx5dY4z2mjtXjNrkGLd2nxKqJ5jznHPR1l1jjI6u2xponmtqnyXMlpb5Ijt8FwjJM2/phPIkf8sQ6t7etZur92tbjsa3r2eR657ivm86hx7fMF2stVm2ONT6x+vV4LVfjGRvJOj2m1FcSaz2ssXPT59nVebcpdx9a26VNx0pWv26z6Hk8rHk85NjSPJucY1c2vUY9vnW+XL13HllXuhbvfNtytGH5lvueDBceORduMfqWbjsXHnr8yXDPbUZfk3vD2cU3+qH77lzr665j0XfhwXvX+k7SJj+Y3f2ZyJpvLtb83rYkXWcLa56k1l+iz9PCmi+yajVrXE3rOH1OL2suSdd4xpRsOl5rnS9X75ln7muPNrmebdDnPanrmJPnMc7dLtF1U8al2/FrSar3aKrvXrMX5+he2+8M9zwSz7f+Gi7n1LdLUl2vf12/8Pj5cPvi+PYH+5qzd8ma+ehr8bLmknSNZ4yUq59y7n12pGG5/yGv/VB3P/yzhNhth+XhSWHDa+2uw2DVTjX3fC2sc3vbalrGxFqLVTvV1Plq46bMO+X+5epL85TGeG06XsvNlzvOjWnVMk+s9bLGS7kaz9hdaL6Ou84vxsyxYDIfeR9ab8u2qay5rNultpx0Dg9r/DLADq+FfYBtC8vpdt3wujssuqXX8m2G5Zb2qDTGyxrv0TJWn7PEGr8LxxmWuyfA/q9Bs7/jC9Q++bA8j3nCsiR/KPUPq0WOLWmpnZu+5hJrvKRrasc5si7erpFjS1pqpdq41nlTvfzaco5Un9rkV6vdIvt0XanPY8qYKI0rXc8mWubx1tbqYr+sSccWOW4brHOWWHN0DjQsz6l2rk3O3z7WCsvrr/VxXkm26zp5PGaF5e38rOhrTGRfrt0i+3Rdqa9Fy1hv7SbXs6kjDMv9D3gtuLq2abidrrAcfyBLP5Sb/MCe5A+7dW5vm0XW6TGeOWJNqc4zR87UsemaSqxxFlmrx7XOlWw6xrqOXJ8l1tRY4yKrVirVlObxzJ3IeRKrLscan+iaXH1tnm2ZdD1HEJZjf401LpH9Vm1tfJTOM8V4rnFY7gOsHZZrt63jsXFYPqmflfI12rz3OTd3bJesthw9V8vYyBq/C8cXll37kH2BuiTtX5LkfMvtF0bf0nIFfPilTPUpFKf9WRn9qrj6hRZKTySJbJf9Vrsm56mxxs/NOo+3zSLrcrdLYl2S67faNTlPjTV+bta5cueuXVOaK9XJr7K9RNbWWOMlXVM7LrFqZZtnrlzNptdhKdWlPlkTb+ekml3Knddqt56/l+Rzae05elmjXnOG5279L5f6vNa/bMb2qbctc/bH215yDounZio5d+62dbwP4jUl6dhqL5G1NdZ4KVfjGZt4a1vmnNvRheXuyai2YrzRX4hWOC2tLBf6uuvof2CX/eaT7HDO3MqyeX/6Mfq86Ycx9zXXdhpY1+ttS+1TWXOVvubatiHOP5U1j2yTfVZ7VOrbhk3Ol+5jiTXOYtXKNs9cuZrW6/DKja/dlnLt25bOq89fvJ7aa4HnOdqaY+153HgOzwRqeb2tty2xv8Yal8h+XeudQ5PjLNaYFnIO63Y6j5RqDtEm9y83tmXO9Bh7WON34cjCch9Mrb/WpS5Q54JnjfnkullYHl+vVV8Jy8OY6mrHQvphzH0t3fZorZ9TPLeXNT5nyrhUm/tauu3RWp8z1zwt4jmnmmMuPYek+2vHWjqHJfXL2nQ7J1fjGZt4a1uvJ97OkWN2QZ9THhevJ/M8Oe6vPEdbc5iBev1f+azXoty1e25b5uy3buuvNbGuVOudpySdQ59Lz62PT4q81lZzzKXnkHL9tXGSt7ZlzrkdVVjObTsYyfw172Xvdd4kLBeeqJdqYXn9vk99Eq71WUrjreNtsc7jbctJtfpriazJ3a71WUrjrWPLlDGWOK7GGlcyZYxmzdEyb7r2EmucxaqVbZ65cjWt1+FljZdkTa7eM8/c9Dk919lxheXKc7QjLOtteSPq9SS2Tb1tif011rgkV5tu668lsrZEj2sl58jdto73zdyPRaktJ1fbOoeXNX4Xjigs29sONDvs+u1rWB4/OcdzlueVP5T6B7R2rNta67XYV+r38p7Xey5Zl7tdUxpXO9ZtrfUWaw6LrLHUarxzeFnjNavOOzZnyvg0Rn8t3c7J1XjGanPMJWvj7Rw5RvPUtPCcz2rv7DQsVxZylHTd1vXLttr9l1pqE+tcufPn5o/tnrqo1OeVO5eee45zRXGeOeZK83hY4zWrzjs2ydW3zhPNOdfcjicsd09OteDpC9Ql5pPe8MR4omF5YbmaHOet1KYfTuuHVLfVaqz+xFMX20tzeFlzeNsk63qs49o8Uaqxaq055bFus/qTKXXWsVdtnGdeWZO7bR1bYk0i22RNjZyjxhofyT7rdq4/xxpnHVtizVTWfJHsy9WVxke1c7TwzFOs2VFY9j/Xr8jrLt2HXF9q1/21+prafJ55Yk2JNaaFnCN32zqeKs4zx1y5a9Vze84VaxLZJms80hg91jNXrJnKmm+bjiYsu/Yhd09YbX/dr9HBeDiO39ztheXh/tWuvZuvv5baNpPSD6PnB1XWeOfa9JwlufFWe6m2ZZ7UnuuLpvYlssY7V64utXvnLKmN88ybuw491jOXFOsTq79Fyxy6tvXYEmusOs9YLTemZS5Zu8l8LefM8c5RrCsudCx4nqN1MBavCavn4WHBw/n6Y11z7n7U2nV/6Tg3V2L1e9ukUn9trIecI9225p3jXMm2rlvfto5rYn1i9Zfkxk2dq6V9l44kLPeBtBYQXYHaQ4TS/slvfcW6D7cW8WTZEJZXT7Yr6/d3qHFsM4njc21Wn5Qbm6NrNU9NTW4O2Z5uTznf1Gu0xnmvIzc2R9dKuj8d18blpHOWWOMkWWPd1l89Yq2eS7dpsqZVbj75Vbfnji21c3iV6lvmirUtcnNY7S1qc6R+17lGz+cL8vnT+Rw93pMcn+Ot16T15/BIP4/HNnksyb5026q36nJaai1Tx5RYY1rIOdJt+TUnjWm1yVhJzmPd1l89Yq2eS7eV5Oq845NSfetc23AUYdm1H0z/9X+Q1kN7zly/APug5Zqn3r+5x+3ycS5dQ401Lir1RbX+aM6axOpPPHPNRZ/LOvcm19MytlY751y74L2GfbjWVq3fq5bHosQa4zVlfGnMnNcTbyeyZl95rtNb47nfnrlyWsZu8zrmcgRh2RcQ7TfmHZZuNfvA7yMAAMCcjucNfker/+e++JcZQRkAAKANYRkAAADIICwDAAAAGYRlAAAAIIOwDAAAAGQQlgEAAIAMwjIAAACQQVgGAAAAMgjLAAAAQMZxhOVHr4bP/+i9lVe+ZtedsDPPXQtvXXsjXNB9F99YtL8b3nrzcjij+wAAALA1R7ayfD58/Pubh+VbX1nM8f1Xw81G3ya2HZYvvHxKA3f3x85Pwsc/a/QBAABsEWF5gp2H5ZkQlgEAANoQlicgLO8YYRkAAJwQwrLVv9zfLAPa18Ldct+z8umvnxfzON1/OVyJ2ytGRFhO2y+Sl59en+MjT4fLi77LF1PY1vP0/aN5hCvPPdDN04+9Fi7dr+YfrjHOP2rfge6PEuOx7sg/VrowfTXcqr9/8vtsBe7Pvho+vai7+1HRtqDPq/uTzzz/g3D9+vXw9vPnzH4AAHD6EZaX+jA8Cr2ZFc1ZVpaHICxDaH5l+YFw6c1FuC2E5S78LleN7fryynI/TwrPSXdNJ70aXVtZ7vr7YLv8/ukg7ArLxs9HJlBHhGUAAA4fYXlw89d/YgTgvl6vGm8elu0wu1FYdgTj2jaMrn90fjtA1zxz71fC7y4+ZTv3KXNMkTMsjwOt+uPHE5a7mrhCLWoWuu939l8jAADAISMsD4r/5K/qNw/LfQjVWxs2CcueQFvds6y3XHSr39b17JgrLBf6I0dY7v5g0t/7ZNN/SQAAAKcSYXnQEoAPNiyr88T61lXlrdhpWF5fWQYAAMeLsDxoCUpzhWUdRNe3QSS7CssLy9XkOO+0VeWT2YaxeVh2zQMAAI4KYXlp+LQLRwjug/VmoUoH4/54u2G5X7k2PvFipJ+vuxbzfCdgCLXZTxzxhFwdjIfjuMVi2ZZ+Ppx/NKU3+F1/7SmzHwAAnH5HEZbze1F1wLI+Hs4OYXqPczbIZQ0BeAimXdhVe4T7cLuqWZGB1x+Wo1Uo71njfKF6x7pALB5z+UeNc0V4/HMQA3H//V6F5SgF5rFxzeCJ1/uwfP318LjuAwAAB+HIVpbh0YXl2nYNLJwLz79NWAYA4JARljHWrW7v2aryvhpWlvmcZQAADhdhGZ3V9gyCctXZF8Pb3faL6+E7Txj9AADgYBCWAQAAgAzCMgAAAJBBWAYAAAAyCMsAAABABmEZAAAAyCAsAwAAABmEZQAAACCDsAwAAABkEJYBAACADMIyAAAAkEFYBgAAADIIywAAAEAGYRkAAADIICwDAAAAGYRlAAAAIIOwDAAAAGQQlgEAAIAMwjIAAACQQVgGAAAAMgjLAAAAQAZhGQAAAMggLAMAAAAZhGUAAAAgg7AMAAAAZBCWAQAAgAzCMgAAAJBBWAYAAAAyCMsH5MLjl5raS6aM2UTtfLJ/19e2Tbn7ss+Pf6tt3JeTfnzicY6sy5F13jEAgJNBWD4guRfdKS/G+sU8R47x1CfWGN0myf5arSWd18Man1j1FmtsIvs9t3eh5ZprdG3t2LLp9cT+Gmtcjq7PjffOK+tarwUAsFuE5QOy6Qt4chIv3rVzyv4p12eN8ba18I5Pdfqr7t+FeC4pV2O1W3StNdYznzVPjqyTdF86lmMlWSvpvlxtaQ5J1nnHAABOxtGG5VvuezJceORcuMXoW7rtXHjo8SfDPbcZfXto0xfwaK4X7jhPTq7eao90n5zLImvlmKltXlPGlq5Xs+rmIOfWt3NSjab7SrU1LefJKV1PqU+zanNknUXX6PGarAUA7N6RhuV7w9nFi9DZu6y+ldsfXLxYPXiv2VfUhWz5gnc+3G7VzUC+qEq1PovsK9V55MbnzlE6n1VXqrdY9d62JHfueCzbcnWprcQap4/nJOcunbdUJ8W+FtYcHt6x+nxynLxtHac2Tde0knOk23PMCwDYjuMMy3edX7w41QKsL1Cv0+PuDPc8sniRra1izyD3gmu9ONds+uLdei2leqsuV5+T5vGwxkeyr/W2lvr0V33bOp5bnF9L7bLGul3TUlsS56nJjcsdl/o0PU7KtVl0f7pdGgMAOFlHGJb78PrQfXcafSuubRpeXTjf/naO3Auu9eJcoutr5FjPOFlj3ZbkGE99jlXvbUt0XzrWX3W/Jtut29555qLPa11H7naJt06KYySrxpKr1e3yuNSn5cal27l+Lfa1jgEAnKzjC8uufci+QO3WheUpq9RtrBdhfVx7UY79pZra+Ba160ptuT5N10hWv7ctyfW1tOu23LFst+aZkz5n7Rrk7ZJYV2KNkawa2ZZul+aKfZrs07XyWEp9uTmsNs2qlX2argEAnIyjC8vdPuTaivHMK8HdKvWOVpbli2y6bbVZrHqt1JfEmppUJ8ek27W+XFuJd47SvLovHeuvuj+n1J+bcxviObRce6Ln0FJNrrZljlz7lDlyx7W5Yr+slXJtkmyr9QMA9suRheUtv7HPkt7sN9d8GaUXadmee1H21ESlvkTX5I5le2leq69Ub4n1Xtb4SPa13pZtObpOft0mfS7r3LnbObX61jk8xxbvHLm5Ynti9UelPotV3zoHAGB3jios9yu8lTf2DeF2ni0TfTgvnXPTF8k4Ps2Rm0u2e85XqpkyPncs20vzWn2leot3Ds916JrcsWeu3HGubRv09W56Lbq2dpxTuw7PPLpekv3pa46s89JzJFZfqR4AcLKOKCzv+o19KSjXt1/UXly9Si/C+mtJqcY7vibVyTHptmb1pXk0XZdYfd62RPel49yYlnZvmxZrPHUlaQ7JqpFfSzYdn8jaeLtGj7X601ddq9u00rj41TNHkpvLousAALt3PGF5p2/sGz4urmGf8hwvjtb41Jb7apnal+ia2nGuLWmtt3jnmPM6cn2xXfaV5s3Nkei5ptDnsuaTbaXzTe2zpHprXKkvKY2rtWm6Rh6n2555IqvOOxYAsHtHE5Zd+5Bdn79c151rwhv6Nn3B1ONLL8qlc03tS3RN7TjXlrTWa7naOa6jpFYf+3M1qd1zTk9NiT5X/Ooh55DjLamvVKN5z9M6p3Vcm0P25+aw+ixWjWccAOBkHElY3uEb+4aPiTNt6T8miXPLr/q2lq7H6ousvtRWGpek+UtkrfxqsfpK9VquVran26V5Y18ra55I9uu62rFU6vPKnW+O88Y6a37PeKsmN84zXyTr9JjS+eLXJFcjj626xDMHAGB/HEVY3v0b+3ZPvth6XnhbX8xL7VqtTve31ufaLN66qKXWI3fduXb5Vcu1b0rPG483PVeaozZPy7lqtS3zyK+a1V6b23vuZMo5AAAn5wjC8gn8j30AAAA4CMfzBj8AAACgEWEZAAAAyCAsAwAAABmEZQAAACCDsAwAAABkEJYBAACADMIyAAAAkEFYBgAAADIIywAAAEAGYfnofCPc/d3/O/ybv1v5iy+v1/3Z3/yXUc2/+XffW6vBnM6EZ3761fDK0mPhSw/rmk+EL70ja74annlW15yMbz74y/DrB79l9gEAcJoRlk/So1fD53/0k/Dxzxp9W/Ln/24RfL/7bvgzo2/py/+4CMj/Jdz9F0bfzGrXsxbaDzK8DyH46hmjb+Xs1UXNO58Ldxh98/JdT3Lhvp+HXz/xTvim0QcAwGlHWD5JOw/L3wt/sQia1kqy1AXYHYVRX1j+x/DnRt/BePhz4QVzJVnqV553s5LcEJY/+c4iKP88fO9jRh8AAAeAsHySdh2W/+Ld8EA1LA/bNAjLu/Psw5ltF0IXqPctLH8r/PiJX4Zf3Peo0QcAwGE4qrB86yvvLcJpYoXUr4W7l/1GzWdfDZ/u2s6Hj39f1L3yNTFHpPqj778abh76x9ehiDo/vQ85s4VirrA8zLM8Xy7sdts5VnUP/M03hr5+hVv2Sas6X1heroSPzrebbSRFQ8Bd7jHObaGYKyx384jzZcJut51jWSfOq69XWTt3t6rM9gsAwGE7krCcwuvVcKtse0UE0y4Ivxc+/fXzQ/+t4eav/6QLsHc/Oq4ZtXWrw+J4oQvDntA7y8pyHzxlwBzvOV5/Q9/IEHSze4M7Inga+5mt1eE0nwzmf/Y3/7gWYOdYWe7miNe5nGe4z4V5t84IwOM9x/oNfUoXdNff0Dciwvcd335s0fZwODsc26vDaT5Vd1WHeN/Kcvemvi9eDReMPgAADsVRhOU+9JZDqR1wh5CdVo6HsCyDcVqNXoVsNaZkhrDchcm1UNiHxVGAjjZeWS7NKwL0cJ61OoMvLA9hWJD3IR/WG7dv3PlX4XcXn7J94Wx4xhpj6sPmC9/+xLg9tzd545XlzH7mbt5VMO4DdeU8HU9YfjR874tswQAAHL6jCMv1ld4+4MpV5aQL2mmsKywvDKvN1W0VM4Tl5aqqRQfejcNyefvEct6GT9OYbWV5jrA8m/KqsR1qNwjLxe0Tq3n9n6bhCcvsVwYAHAfCcmfmsJyIbRvjLSCDucJyIWyOzBSWqyvGhOUuLK+tLOfMFJbtVeeVecMyK8sAgONwRNswjLAqzLcNw2COW5hrG4Y3FM60DcPuE1zn6e1VWJ55G0Ztz+/STNswauF8fV9zju/62bMMADgGR/IGv+FTLkZheBGE5Rv8hq0TMvSu7XWeGpZzoXiYrzi2atga4Vld3jgsLwyfOFFbXe4CrFpdtt7g14fa/Cr0TsPynLoA7Fxd3jgspyBcW10etoeMVpcXwXjtDX7pEzMqwZrPWAYAHIEjCcvRsEocQ3MnH15XNWo12hWWh2A+Ulg9HkL6UnG7SI61l9gIoHOE5WgIzCNGWO8D66omF7D7YG3XndqwHA2BecTaBjFDWI5SYB5ZWx0eVo2XNbnz6jrr3P2+Zf6bawDAITuisAxgdqwuAwAOHGEZwEa6vcsEZgDAgSIsA9hYF5jZjgEAOECEZQAAACCDsAwAAABkEJYBAACADMIyAAAAkHHwYfl/PHN/uPmWPzf7AAAAgBLCMgAAAJBBWAYAAAAyCMsAAABABmEZAAAAyCAsn6SLb4S3rl0Ll+43+pL7L4cr194Nly8afQAAANgqwvJJIiwDAADsNcLySSIsAwAA7DXCcrOnw+VFeH1rzTj0Xnh53C/Dru4befNyOLOoOfPcNbu/80a4MMzVeyBcelP26wDe91957oEhoOfqAAAAIBGWmwxB+eWnl219qJWhcwiuoia7OjzLynJ/TV0QTm1r88owvQraXWgfwvlyLAAAAJYIyy2s4KrbuqCqV36HYCoDdDRDWO7C+lrgFSvJ4ljX9UF//VoBAADQIyw3ya0srwJncfuEDrUzhOXilo7ldRqr3QAAAKgiLDeR2xmScdhtWq2dKyxXt1IQlgEAAKYgLLfIbLEY8QTgZK5tGNVwTlgGAACYgrDcwhWE0+qzY3V5CMKjN+etWd/6YfYXV5fbwnLa2lG+LgAAgMNHWG6U2yM8DpbWdo3M6nAXwEWdFXqHUL2q00F8CMwjMtS3heXVvmvndhIAAIADRVhukNvy0Lc7t16cCp7VagAAgMNHWG7Qryqvh+Vc+2mVVpZz+6QBAACOBWG5ib294mBWYJfbPQ5plRwAAGA6wjIAAACQQVgGAAAAMgjLAAAAQAZhGQAAAMggLAMAAAAZhGUAAAAgg7AMAAAAZBCWAQAAgAzC8sbuDWcfvxTO3mX1JZ6a/XHLfU+GC4vrvfDgvWY/AADAsSAsb6gLlo+cC7cYfYmnZhduf3ARgB3XQVgGAADoEZY3cme455FL4aH77jT6Ek/NbnjDMgAAAHqE5U3cdT5cePx8uN3qSzw1O0JYBgAAaENY3kAXPitbFTw1RV3YXsyR6LC7DOP9vuhUt1rJHrdrcsV7uf3C6BvZ+JqSftW9OBcAAMAJIixPddu58NAi3BXftOepKejD65PhnttSWwqXYqVaBNfleYY2fV7/ynIfcq2w3HZNq7r1cax0AwCA/UdYnqgLf5Wg56nJywRWHcDNYDwEWLWivXlYbrmmcTBe/8PBvkYAAIB9QlieJL/yuuKpKejCpQqcnT5kLue1gumCFYw3DsubXNNaWF5YrkB7rwsAAGC3CMtTdCGv8qY9T03JHGF57pXlucOy6uuD8waPGQAAwMwIyxNYQVTz1JRtsOVBh9fBxmF5k2sqheXEUwMAALBDhOVWXaCzVlcFT41DF25H8/QheBR4jWDaj1tfobXeZGfLheXp1+QKwmbwBwAAODmE5Ubbf2PfWB9wY0Ad6NXqLmCK/qhw7j7srshArPtWxsHbd021sNwH8tE8BGUAALBnCMtN8iuuK56aGbEaCwAAsDWE5RZdMN3yG/taEZYBAAC2hrB82hGWAQAAtoawDAAAAGQQlgEAAIAMwjIAAACQQVgGAAAAMgjLAAAAQAZhGQAAAMggLAMAAAAZhGUAAAAgg7C8gRufDeFDV6LfhhuNfgAAAJxuhOWJ/uSxPxCSAQAADhxheZKXwg0vhfBHj71k9AEAAOBQEJYnISwDAAAcA8LyJIRlAACAY0BYnoSwDAAAcAwIy1Pc/X74oyt/CDfcbfQBAADgYBCWW3QhOYQPvfR++BOrHwAAAAeFsDzFEJr/+C+NPgAAABwMwvIk7FkGAAA4BoTlSQjLAAAAx4CwPAlhGQAA4BgQlichLAMAABwDwvJENz4bwoeu/DbcaPQBAADgMBCWJ+tXlz8UP0qO0AwAAHCQCMsAAABABmEZAAAAyCAsAwAAABmEZac5rwkAAACnA2HZ6ZDC8oXHLxWPp5hjjmNyiI/Xofwc5a5hn6+txaE9xvtwfwAcNsKy0zGG5dYXoSn1Law59pm+Znm86f1Jj0mONWYupfk3PfeU8ek+11hjE9nvuZ0Ta1pZ8+S01udMOa+l1C/Ha7n+2jiLHJPObZFjAKAFYdnpWMKy58VF1rSw5vLYZOxJk9eeu72pk3h8cufc5FrS2Lnvj3c+fX49btPrmmv8pvNErXNY9bJN99fmz/XXxmmt9QAwBWHZaRdh+fYHF6HywXvNvuSW+54MFx45F24x+rysF7ZEtudMeYGaMiYqj7sz3PPI6tovPP5kuOc2q+7kyOtfXec6OaZWr2vk8a6k88rrytFjLbrOO65myjy5MbFds+pyWuslPXaTuaawzifbWq8v118bJ7XUAsAmCMtOWw/Lt50LD1XD3r3h7OIF4uxdVl9ZfGGxpD5dn+i+Um3OlDFR07i7zi/q9y8sJ5s+jtb4HFl3UlquI1frmSPV6Np4LNtydamtxBqnj2ta66XcWM+csaZVyzyyX9fL49RmqfVZZF+pDgDmQFh22nZYdq0Yd4HwfLjd6mugX1y8L0q7Es/ZfN49D8ta6/3T9bnxzY/bDKxzeq+jVtfS33pbS336q75tHde01kdxTG2cp2YO1jlkm+6vXVOuvzRnjrcOAKYiLDttNyx7Voz7LQcP3Xen0dfGenGJbTm6tlavWeNLpozZp7Bs3X/dZtHzSLpfHuduzy3OLek+63aJVedty9WnY/1V92uy3brtnccSa3PzWGS9PLbkxrSqjbX69flzfZZcf2lOi66vkWMBwIuw7LTVsOxZMXZt0/BJLxpzv3jMNd+keSphuVu5X8y7pFbx1/rX6vo/aKw95d1e88y/CsQ5cse6r8Q7T8ucm7DOk9pq1xD7czWldqtvyjy1ttyxbLfmsWwydk61c3r6LbJf18tjLfWXxnnmKNXUxgOAF2HZaXtheXiTWuWNfaVA1kq/yKRjixxX01qfM2meUlhe9I1X5PPBd8n4A6YP1PqPmvK/Cuj7Io9b7qd3npY5N5E7z6bnbx2v69Ox/qr7c0r9uTlzZJ0e451jTrlzeq6lVtN6/2K/rEm3rTaLVa+V+gCgBWHZaWthectv7NPiC4h+Ecm9qNRebLzztJo0T2VlWSv/8ZF5vLvv1XgrjB2gV0qPUcv99M7TMucmrPOktk2uoXWsrG+9LdtydJ38WpIbW2tLYl8rax4pV9M61qrXbaU5Y19uDtmem8NTE5X6AKAFYdlpW2HZs2JcC2Qe8YUjvXjoF5Hci0rtxcaaxyJrPKaMKYdl/RFzg8zjXvoIv/H3q76PXN4XebvWp3nH1uaZS+l6rGOv1nGp3ns9pflrc+TatJZxnvmSltocPYd3ztq4dKy/SrGt1K/bczVSqcYzHgA8CMtO2wnLnhXj+d7Yl+gXkXicI+s03V+r95o0TzYsp6A8/mMj+0eKsf1ivX84T7fSXP4jRt6X0uNVu8+xP0nH8qusk8eSHL8pOU9uzinnah2j69Nx6zVZ7d42aY7zWrx1NXqeKedPt602fTvHqtHzTp0n8YwHAA/CstNWwnItmEUzvrEv0S8iuReV2ouNd55Wk+bJhuX+DxL9x4YZll2P9eqPl7jiX/sjJt2X3H2K7UlLX5L6SjVJba4WnvNOOVfrGKt+yjXFdtlXmrc0h9UelfpqppwvR45pGZ9qc+Nb5oqsen0O/dUytQ8AWhCWneYPy74V49KWgKn0i0juRcXzQiRrSvUtJs1TW1kWj2H3mC7OMQ7L/hX81SdnlIN1uh+bPC6lsbrPc55NriVJc8wxl9Y659z1sT9Xk9pbzxlNGRPVxk2dt1U8T+lcrdeh663xqW3qeUt9ANCCsOw0e1je8Rv7otyLTzzOkXWyXh97yDGWVOOp7fWPjzzHkvwDY3hjnuzrAq8Iy6sArOVXq0t/xMSx+thDjinJ1ZbmaJk/R88Rjz3kmJKW2kifx8OaJ5L9uq52XNNaH8UxXpuO16z5SrxjUp2sL42NfbX+XFtpHAC0ICw7zR2Ws3tmhTne2KeVXlw87dt+ATodL3Dz/hHTqvYYnY7H0HYSP1+xLdcuv2q5dktLreQZN3XuOU19LDa9f7m+lusBgBrCstO8YdkTtvzbArBL69s6AADA4SIsO80blnHqyK0cBGUAAI4GYdmJsAwAAHB8CMtOhGUAAIDjQ1h2IiwDAAAcH8KyE2EZAADg+BCWnQjLAAAAx4ew7ERYBgAAOD6EZSfCMgAAwPEhLDsRlgEAAI4PYdlp7rD8med/EK5fv7709vPnzDoAAACcHMKy09xheeWp8J2DDMvnw8e//174/CtfM/oAAABOB8KyE2G5FWEZAACcfoRlJ8JyK8IyAAA4/QjLTicWlp94fbS3+fr118Pjsv/si+HtUX/yg/D82VhzLjz/9uL47RfDZ+S4hc90+6bVfAtnnrsW3rr2brjy3AOjdpfPvho+/aNFSM64+9FU24fpT3/9fLjp0aui5ifh458d1+jAfesri7bvvxpuFm1r59X9AAAAExCWnU4kLMcg/NpToi0ffFf6+b7zhGjrAncKz0k/l3XejcLyUm1leejvwu3VcOvQPg7CzrDchW0ZsjOBGgAAoBFh2elEwrIhtxqcPP7aIkyPAnbUn2PUbgboOTnDsgq0N3/9JyI8e8JyX9OtUIuafqV5HKABAABaEZadTiosd+E3Bt2RTFjuArDdp0O2Harn5AzL2f7IE5a/Fu6W2y+U1bYPAACAdoRlp5MIy31QHq/+5leWje0X0rC3ue+PtdtcVY52G5bXVpYBAABmQFh22n1YHvYnq9VfOyzn9x9Ly9XkuAK91VXlaFdh2TMPAADANIRlp92H5SHcijfz9UE5rjaPw3LXXnzT30B8skZ2BXphnjf4DaFWvHlvzBdyx8E4zTluS5+m4Vpdvv9yuLK4b29deyNcsPoBAAAEwrLT3GHZ3oscySDcB+llXwzEel9y9qPjCqvVlWA9V1heBuJh//B4D7F3RXi8JzkG4u5NgDIsR6OPnxvoms7T4XIXlue4fwAA4NARlp3mDssnw7dd49ClPwYuX7T7AQAAEsKy0yGEZb2t4zgNK8tvXg5nzH4AAIAVwrLT6Q3LYivHkQflCy/32y/eevlpsx8AAEAjLDud3rAMAACAqQjLToRlAACA40NYdiIsAwAAHB/CshNhGQAA4PgQlp0IywAAAMeHsOxEWF534fFLZvu+2Pfrm2If79O+XdMm16PHHuLP0FS1xyL2t7LmyWmtB4C5EJadDiUs6xcc+cJlkbVarb9Gj5fnzZH1Hq1j9Pnk+FLfrkw5px4jrz9H1nu0jtHnk+NLfR6t9ZIeK68hkf2HruX+677WY8nqK9UDwDYRlp0OJSxHuRed1hejOV685Bx6vtqxFPta5ebJHZf6dmGT87Xcj9J5Yl+r3Dy541KfR2u9VLqOXNshiPfLYtXmWONrrHkS3V+rB4BtISw77SIs3/7g4gXkwXvNvuSW+54MFx45F24x+rxyLzqtL0aleTSrLpJ9uq52LG0yViqNmzrnFHHuqXLzWbc9x9ImY6XSuKlzJpvUp9vWHG3z3hvOLuofuu/Otb7ud3jRV/tdP2lt9zdv6jx63FzXAwCtCMtOWw/Lt50LDz3+ZLjnNqNvqX8BPnuX1VdmvdDENg/vGFmjx8jjnFSX5pNkv0X31Y5zYp3m6du2Oc+V5pL3I5H9Ft1XO86JdZqnT7Nqc6zxSerXdbn2um2H5TvDPY9sOkfb46fNMZeeo6S1/qa7zi/G1J5TAaCOsOy07bDsWjHunvzPh9utPofSi03qa3lBkrW529ZxTm1caZ7Y18KaI0fWt46di3Xeqdeix9WOpdjXwpojR9Z7x1p13jYp9U8Za8uH5XnME5ZLpt3vda3zxPoW1hwdwjKAmRCWnbYblj0rxv2L4yYvvrkXFt1efAESZF3utnWc2pJcXe24pbY0tmbOuabInc9zHbEmkW26pnQsbTK2ZspcVo23zVK6Bu8cvdMXluP9q7HGadY4zRpXkhtTnIuwDGAmhGWnrYZlz4qxa5uGj3yBmfQiNMjNo8eW5tLjauRYSffVjrU0/xTWfHMpnaPl3LI2zVkix0q6r3aspfmnyM03tc2S6uJXPaY2R/eeg2FcIsPycvuF0be0fC4YwnCqT6G4ex4Q7Ur/B/cw1viXqv4a7OeaOL7lOKdW551Hyo2x2q3vw5J8TGqP9bJGPe8O3wO9uKHPO2W7HID9RFh22l5Y9q0QdU/EG76xL4lP5PKrbpfHuk2Sfbnb1rFUGqd550nHmuz3SuOmjt+EPnf8WiPHS7KvVBd550nHmuz3SuNax1v13jYt1pTq8n1WOC2tLBf6unDWX8ey3wxnlecNK+QNY+xrWt3/EmucZo3TrHElaYweW5zLfAwEz2PtCsvG9yITqAGcToRlp62F5e5JtbZi7Nmm4VN6cSm+8Bhkfe62dSxZ4+JXTddqpb4p5HlLbdsiz5M7Z8u1WPPFr5qu1Up9U8jzltpyrDpvm5T65dea5XgzlG0Wlse/61Z97Y/sfkx1lVQY3SfHcU6tzjtPUrqO4lyV++t6rK05zEC9vlrv+XQjAKcDYdlpW2HZs2Jc+qdTr/iikFj9kewr1SW5ej22NJc1LjfeM0/8WqLHaZ4671xzyZ2r5Rpkbbqtx+faJVlTosdpnrqWGo/SeHks+6Vcn/3m3E3Ccu2P56gWltefN2rhLT0WJdY4zRqnWeNydL08Ls7lCsuVx9oRlvX2mpGZ/jUQwMkiLDttJyz3L5rlFePyP522ik/gueP0BG/1WXK1elxpntQXv8rbuRrZLsm+XF1tfKnfUhozZb6c0jmsdkuqldelx+faJdmXq6uNL/VbSmOsdm+bRdbpMbk59jUsj0NdPKdn3hXvY6bVxrXMu9FcOw3Lmy1mANhvhGWnrYTl7om48iTr2qbhp19c5HG6bbVpnnlyx1LsS/3yqyb7Natdt+XGarFO8/Rptf4WuXla5pfXI79qsl+z2nVbbqwW6zRPn0drvaTHyuPcvGZYGgLViYblheVqcpx3w1XlxBovWWM0a5zmqSvW1B5Lz2Nt1aiw7P+eATitCMtO84dl34rx3Pve5IuLfqFJx6WaXLseo8laSfaV6qJcf6k9sfotulYel/osLectyc3TMr+snXrdpfbE6rfoWnlc6vNorZdKY7N9OhgPx7F+e2F5eG6o/bHdzddfS/lfsNaVHouS2jjPvN5zF+uKf7AseB5rHYzF93b1eA5/uLC6DBwswrLT7GG5e9KtvSj2L6qtL3Il1otLapvyAmWN1fNMmddqt/pzbbrdarNY4zx9mudcXnGuFtYcUq4mtVv9uTbdbrVZrHGePo/Weskam9qK84pQ2oem9T+G+3BrESGraZUyhbSV9eeKoSazd1aObbWNedJcuk1K/bW6zuj7siAfB+djPd6THL9X1vPy+vcimvO5G8DJISw7zR2WuxfOyps/drkXLj6xW+2aVecdW1Kbw9OfWP1JrU7267pS3zbNeZ7aXJ7+xOpPanWyX9eV+jxa66Xc2E3mPFnroX2feR/n0/v9AHAaEZad5g3LnhXj0/UiB2D/eP4oBwCUEZad5g3LALAt/R/jcfWVoAwAmyMsOxGWAQAAjg9h2YmwDAAAcHwIy06EZQAAgONDWHYiLAMAABwfwrITYRkAAOD4EJadCMsAAADHh7DsRFgGAAA4PoRlJ8IyAADA8SEsO+1tWH724fDKTx8LX3rY6JvB2atfDa+887lwh9GXdyY889PFuKWHw1mzbku+fEP4/a8+GH72ZdX+4odDeP+G8IJs21Sc81cf6PzmRaMfAACcaoRlJ8Ky3V9zx7cf23FYvin8ZhFcf//djxp9Hw0/e38RbOcKzF0oJyQDAHDICMtOhGW7v2a3YXkIw+/cZPQlpTDd5oXvfnD+lWoAALBXCMtOhGW7v2aXYbkLr7/6cHjL6Bvptk4Y2zQaEZYBADh8hGWnbYTlPkimfb2RHXq7wJqr6cJyDKPjfcLPPCtqBuN57Jp+vnGdDMtWeC4F4lpYrl1TN7473/j+vfDtT4zq0qqyb8XYswJdR1gGAODwEZadZg/LrhXhT4QvvRPDoQybi7arIqwuw+1qrj6gyrmHea6eGY4XHv5ceEGF0/Vx6+F4vrDcck3x/ol267Fr3D88R9AlLAMAcPgIy05zh+VSwEys8LrGCo46dHY16+fqgu8yrPYrt3rFdmth2XVNmcfACNX91grHFoxk460YLSvZAADgtCIsO80dlscfr2YHYiuYrnGE5T5wpnMpaf5uzPp1bCssu65pWWfPLbn3KyeTw/KwhWOGPc8AAGD/EZad5g/LSdpq0ZOrpfOG5UrgPJGwXA/B3rppK8sN9Wvm2fcMAAD2G2HZaXthOVnfw+sKiu5tGOtBeESP6QzXtIWw7LqmBXdYZs8yAADYAsKy0/bDsrVneNiqMQqniwC79ga/Slherl6XQqcOxmnM+Pw6vPbH+bnzYddzTQ1huWmll0/DAAAAPoRlp7nDcrdC24XMlfWPQ4tEaO2oYOwKy5GepzeuGX88W+zrwqoO63KeuBLeXYMItMP5lzXC+D7Wr8kfltO+Zcde4o3f3NcjLAMAcPgIy05zh2Vsg2fFmP/BDwAA+BGWnQjLp8Swd9kOzEOYnivgdivU/n3SAADg9CEsOxGWT5EuMBvbLGK4nXkluN/6sQjghGYAAA4SYdmJsAwAAHB8CMtOhGUAAIDjQ1h2IiwDAAAcH8KyE2EZAADg+BCWnfbxcQIAAMB2EZadCMsAAADHh7DsRFgGAAA4PoRlJ8IyAADA8SEsO+1/WP5UeO/iU+F3F78Sfnib1Z/cEX74hVi38t6dVp3Tx66GXzzx8/C9jxl96VxfOBueWeuzPB0uX3s3XHnugbW+M89dC28t+t56+em1vt17NHzvi78MP/6k1TdVP+evn1j44tVwwawBAAC7Rlh2OpSw/Oq5lvBa863w40W4+8V9jxp90b6F5QfCpTdnCtyffKcLtnMF5m8+SEgGAGAfEZad9j8se/SBeqOV5KVhJfTBbxl9yXxheR4zhuWFC/f9fBGY3wnfNPra9H90zLtSDQAA5kBYdjqIsHzb2fBPM4VlX1A87LDs+4PBg7AMAMC+Iiw77W9YTtsvkr8Kr5p1C7OF5T4k5rdfrNS2fVx4eRFe4/YKQYbl5fYLo2/p4huLvjfChRSGU30KxfdfDlfEHNrli3GeYeybl8MZNX9/DXH+cXun246R27PtRVgGAGBfEZad9jcsrzxz71eMsLz+hr6RKfuXuzf1+cJdPixb4bS0slzo68JyH3yX/UNA7oNwUllZ7ua5Fi7dL9v7MfY1RXMEXcIyAAD7irDsdHrDsjDXynK3murbq9uF5XOfWu8zg+lmYXkcjK36Slgexoz6zeuUZtiK0fB4AgCA3SIsOxGWV1re2JYLy93WhrUtD5uE5VKgTWpheX3LRbdNpFC/UVgePlFj8z3PAABgWwjLToRlYYaV5X0Ny+PtG/GctXn9+7ezZtn3DAAAtoGw7ERYFhr2LOeYb5obguqJhuWF5WpynLdSy55lAAAOG2HZibAsebcepE/qMK5JB2PxiRXbC8vp0zcyn2yRdPP11zLeB22YZVWYsAwAwL4iLDvtbVgeArD1SRf/dO8dZu3mYTntW66FxEJYjkQolR/9JgOx9dFyq3o5jy8sL1eXxVzrgXioMT5GbmyGN/d1CMsAAOwrwrLT3oblEzNXUNxH66Hdwv/gBwDA4SMsOxGWDcPe5UMLzN1qdm1Vefgki3kC7vCHxxevlreHAACAnSMsOxGWM7rAfAif5NDvie62Zji3X8y7EtyvLncfJUdoBgBgbxCWnQjLAAAAx4ew7ERYBgAAOD6EZSfCMgAAwPEhLDsd+uMEAACAdYRlp0N/nAAAALCOsOx06I8TAAAA1hGWnQ79cQIAAMA6wrLToT9OOdn/oCP9V9XVzyQGAAA4vQjLTof+OOVsOyy7/re8ffTo1fD5H/0kfPyzRh8AADgYhGWnQ3+ccrYdZgnLAABgnxGWnQ79ccohLGcQlgEAOAqEZadDf5yW0vYKSYZZ3f/y0+tzfOTpcHnRd/nireHMc9dE/RvhgugfzSNcee6Bbp5+7LVw6X41//2Xw5VFXZx/1L4Dt77y3iIkZ3z/1XBzqu3C9NVw60fOh49/X9S88rXVfFbg/uyr4dOLursfFW0L+ry6P/nM8z8I169fD28/f87sBwAAbQjLTof+OEVWOM2v/D4QLr256CuE5S78Lsfa9eWV5X6eFJ6T7jpPejW6trLc9ffB9tNfP9+36SDsCstD2JYhOxOoI8IyAADzIiw7HfrjlAumG4VlRzCubcPo+pcr0pF9nTXP3PuV8LuLT9nOfcocU+QMy+NA+7VwtwzPnrDc1cQValGz0K00ywANAAC2grDsdOiPU7+1YX3LwyZh2RNoa2F5bctFtw1EhucT4grLhf7IEZZv/vpPFjWr7RcjctsHAADYCsKy06E/TnsbltV5Yn3rqvJW7DQsr68sAwCA3SAsOx3642S/aW4IqicalheWq8lx3mmryiezDWPzsOyaBwAAbA1h2enQH6f1YDwcL0LvNsNy9hMvRvr5umsxz3cChlC73H+seUKuDsbDcdxisWxbfpqGb3U5vcHv+mtPmf0AAKANYdnp0B+nngilC8uPfhNhuQ+3q5oVGXj9YTnqVpfFXNY4X6jesS4QZ/YQO1eEx3uSYyDu3wS4CsuR+vi5wbhm8MTrfVi+/np4XPcBAIBmhGWnQ3+c9t1efFzcqXAuPP82YRkAgLkQlp0O/XHaa92e5T1bVd5Xw8oyn7MMAMA8CMtOh/447aPV9gyCctXZF8Pb3faL6+E7Txj9AABgEsKy06E/TgAAAFhHWHY69McJAAAA6wjLTof+OAEAAGAdYdnp0B8nAAAArCMsOx364wQAAIB1hGWnQ3+c9s2Fxy+Z7VO1zFeqnfu6vOa8Jl0/5T5ZY+aap9TeatN55rqORM7nnTtXt+n4TW06rx6/r9c5p7kfMxyv3M/CJj8jc/18zf1zuul8c1wPYdnp0B+nk2T9IHvbpFJ/yy9LrNVKfZEcX6vNseZISv21sZpVfxJzRLkxU+ayzDHPXNcS6bk8999zu0TXxeMSWVvTWi/psZvMVbKteb3i+TWrzsM7VtfJc+fIesmqzbHGo2c9XhZrbCL7PbdrdG3tOGfqOK855tt0DsKy06E/TifN88vm+WHP1Xh/UWSdHlPqs3jPGdVqN70Wyar3zBFrcnL9eg6p1F8bm8hz6THeORI9l4c1T4keU5oj9emvur+mZZzVF9um0nNJut+qz82R5pesuqjUNyd9PYlVm1Mbr49LZG1tntK8Vp+3DX7exy/V6a+638Mz1jPfJtcQxXpJ98njGj2XhzWPRlh2OvTHKef2Bxc/TA/ea/Ylt9z3ZLjwyLlwi9HXQv7Q6h9g7w90rs4z3nsOrzhfC2uORPfL49pYKdXGrx56fKL7rNraeEupX46Xdfq2HGNJ9Vqpby5TzpEbk+6PlKsrHUulPqllTotV3zLnJrW7NPe5W+aTtXpc7Viy+rxtW3HX+e5cc7zm7Ispj11uTPfYKLm60nGLTeeS9el2/FqS6rVS3yYIy06H/jiZbjsXHnr8yXDPbUbf0r3h7OKH8+xdVl8b+UOeuz1Vyxyx1ssan9T6W+jzpWOLHKdZ/bUxFjlmypylMS3zyfbS+GRqn0ccP1XLPKlGj5HHqU3LtUt6Hin167pce45VJ9tq8+j+dBy/lsgxuzDXOfX9kKx6LdXpsbJd1ktWn7ct6RZd5gq3pzAsp8dGP0bd/RBtubrUVmKN08eSHOthzRFZtSW5OfTtXG00tW8ThGWnQ3+cLK4V4+6J63y43erbwNw/8C3zeWtrdak/fq3RY5PUl/uqb5fEOqvWOz5Kc0i59kTPkepzbaW+UntpfNLal6svzVPSMi7V6q/6tnUs1WpLYyVZV5qjNl/st2pSW218pGtKYzzzzSGex8sa76HHeueqjSvNE/u8rPHRrGH5FJKPTettLfXpr/q2dVzSUitZ41rnkvXpdmmO1r5cfWkejbDsdOiP0zrPivGd4Z5HLoWH7rvT6POJP6wtPHNYbTl6rpaxkTU+yfXXxkmpVo7R473zxbrc2JY5Sl+1lvbYtsk86bb8Kul6LVdjjSnNU+IdJ+us23qe0ry12tLYpHWO0pyxz+rPtVt0XWmcd85taDl3rM2RNXqMPE5treP0sWT1edsSwrL9eOuvul+T7dZt7zyat07LjWudT9an2/KrpOu1XI01pjSPRlh2OvTHaY1nxdi1TWM+nh/sXE3LL4W3tlaX+uPXGj02SX2empLcPLV2Tddb43O3Jau9NM4zT7qtv+baNKte3y61JbFPk32y1qJrcsfeeXV9/Fojx88pzW2do+W86Tolqy4q9W3blHO33BdvbbxdI8dKVp+vrV9wSfNrcpFl9a+Y4zGjhZi0/SLJvZeme10SdUvy9Sx3ber1rHbO5etkv3CUq4tt8nhKu27LHct2ax5LrCvJjbHao1KfRdan2/prrk2z6vXtUlsOYdnp0B+nseEXv/LGvl2vFnh+sHM1Lb8UsdbLGp+kfl1XO7baczVRqS/KzRNvp+Ncjabra+PlbSm2W3SNdVuyavTXXJtm1Xv6cqw679ikVJ/6anPGflmj62vjkzRPjTU2kn26rjZWs8Z7+nZtyrlLY1rum+yrXUfLOVvaktprRReWF+Oj5b9mdkHUWowpvD4NQVmG7O7cVlAW4/vzj8/Vt8lxxnlFmF6ec7gG+a+y+rFJx/qr7s8p9efmzKnVe+eRWsfIen09pT6LVe/pqyEsOx364zSy4zf2eXl+uHM1Lb8Y3tpaXeqPX2v0WE3X6PGSrNNSv/6abnvGa6ld1li3Jatdt7XOk27rr7k2TfdZ4/XtEqvOMzbW5Og6+VWrjcsd1+TqW+aRten21PG145Z5p4jzT5Wbz9ueq41kX7odv2q6VtP1Jdb4yBeW1WuOETp7hbBsBWzdZs271pZ5fVuuJMtjXdePlYFdPjatt2Vbjq6TX2tknTWmNk/s97LGR7Iv3dZfc22a7rPG69sehGWnQ3+cJM+K8fpf3dPFH1ova7yUq/GMTeT5aqzxSa6/Ns5SGtMyX6yV9bnbNbq2dU6rPVcbleaRUpv8mmvTdJ9VWxqv5Wq9c8x1Pbl54leLrM3Rdd5xSaqX41rmqJ1/6rxzaz136bqtuUrzW3Pl5vTO09qW+MKy9/Vkwsry6Ny5lWVx/mGeeJ/WieBthXNDHCe/6nZ9rNul2hy5NkttLu88Wuu4WC+lNvk116bpPqu2ND6HsOx06I/TimfFuH+yGu0n2wHPD3iuZsovx6ZzxboW1hxJqb82VtK1tWNLrElkW+22ZLXnaiPPPOm2/Crpek33WbWl8Vqudup5vG1a7nxT50tK89S0nNtTW7qGUl8U+2s1U7XOq+vlsTVXaf7UF7/K27ka2S5Zfd62ZGdhOQXhET3vMH5U413VVhrDsj7W7UlLu7fNUhrrncPSOlbW6/PHr5Ku13SfVVsan0NYdjr0x2lJ/zOTpXsiqT9BzM3zA55qPL8wWqyZyppLfrX65G2rTir118ZKutYa6zmX/prrz7H6S2Nq80lT5vHM33INUayXdJ91W7Z5anJ9ku4vjavNpbXWJy3nztVquiYp9UW18ZtomTddh5b6dH2pPbLGpzZJ9lusPm9bsquw3M1T+VdR12ucsZXCNDEs59qSXF9sl32leXNzJKX+2tiaTcdHU67Pc96p10ZYdjr0x6nnWzHunvjMv+q3y/uLYNVN+QXJjfFeh/6aI+tySv21sZKuzZ3fmlO21fqtYyn2WazaqNSnTZmnNr/3/LFOsmqS1F+qK83jGR/J/tztUpsl1qVaedvLqs/N4aktnb/Ul3hqpmidN3e/cvOU5pd9pbqodX6rvXSOPgznQ+WsYbk2jzPg9nNVVpc3CMsltfrYn6tJ7aU5PH2lmppNxiZTrr923k2ui7DsdOiPU8e1YuzZpuEXf3hbWHNIuRrPWKlUX5tL9ntrW+eskWMl3Veqb51HHk9pz82ZmyOnNHepL91uIeeRc1jtlto8qU/X1I5lm+zTty2p31Kq8YxPanNoVm1NGlcbP3X+Eu+5PfQcU+bO1dbm8rTX5ki6RZZFTSIXZTwhN4XXdfI1y9pi0ZOvWfpaEr1QZJ5ThvSGsNzKmieS/bqudlwi5y216b4prPk0qy61lfrS7RZynhzCstOhP05R7Z/KItdf7lvi/aG2tIyt1c45VzRXjYeeZ+q8clxtjk2ufcrY3JhNrmOb9HXFY+taU1vufpTG6NvWcakt0X0WT713rk3t6jyWOc6dm6Nl7lrtLs6xK7nXsD4c969budewvr0efHfBejxjW65dftVy7VGas1QTeWrmljvfrq8jISw7HfrjtM9v7AMAoGxYVV4Ly+N2GZzl+Fw7EBGWnQ79cQIA4HSzPg1jYbS/ObNVo/bGQBw1wrLToT9OAAAAWEdYdjr0xwkAAADrCMtOh/44AQAAYB1h2enQHycAAACsIyw7HfrjBAAAgHWEZadDf5wAAACwjrDsdOiPEwAAANYRlp0O/XECAADAOsKy06E/TttxJjzz06+GV376WPjSw1b//rvx2RA+9OwPzb6SCy+/G95683I4Y/TldGOuvRuuPPeA2b+5e8PP/tMz4b/+p0fCa4vj1/59vP1M+NlfW7Wbu/S3T3TzJ//5bz9h1s1ldH/++pH+vP9e/mcEC3e/H/7oym/DjbINAIACwrLToT9OS88+PGO4Pd1h+U8e+0P40MRgtZ9h+RPh7/9+ESD//vPh0uI4hdltheWVPqRvOyz39+eJ8PdfWBx/4fPhP1theaH7A4jADABwIiw7HfrjtDRrWD7F/vK3i0D1h3DD3Uafw5SwvH1WWB7C5VrtnE4uLNvnfCnc8NK0fzEAABwfwrLToT9OS4TlhR+GP74Swh899pLR53MawnK/VeFAw3LtnN12jBD++C+NPgAABMKy06E/Tmevxu0SGe98LtyRarsw/XA4uwheX3pH1Fw9I+ZL2y+SWJ/6JF2XjMN67tpe+LYIQg9/Lrwg++U1d/pzPfPsreGObz8m5jGurVtVLv8z/ZnnrnVbJpZefnrU34Xl2HbxDVF3LVy6X8xz/+VwRc4xuHxR1OzUEKaNrQv9fuB+r/OoNm51GOTDcC642ufrzpUCfZK2VSS6f4JuO8ZL74c/Mfqizzz/g3D9+vXw9vPnzH4AwHEgLDsd+uO0VFtZ7vr7oLkMq0NQjUFU1/fB1ArLQ1AWIbuvtYKyGD+caxSUjWvuxo0Cswjmy/Yh8I+Cfj1E9XuL3wgXlm1Ph8sx6IqV5LT/eK2ttNo8hOeTC8u5rRnrYfe1f69qhjfU2fufNwzLxgq4GahbVf4oIiwDACLCstOhP05LzrA8DsZ9EB0F2EE2LFsBe63NCrO6rT9eO3c3l7wf6+E8Wg/V/X7W7BaMXKDtVpBXK8dmMO7GqtXltf6TDctmsHVt1yhte9gkLPc1a2O7lebaNVWwFQMA4EBYdjr0x2nJFZYL/Ur7yvK4NreyvArUYsXYoOusQD9W2a/chWK5qpz0q8sp6NqryOOaNXsRltdXbbtjvTVDb4sYzB+W+7H6PMlGn+RBWAYAOBCWnQ79cVraWVhWe5476/P248d148DrDcHeusrK8iZhuRaG9yQsj1dt+7A6CqUpKI9C7rZWlkvzbqgLy9M/8QQAcBwIy06H/jgt7Sosd/NYIVrqA+5qddhi7zte5w3LlT3LuUDbhejKNgxVs2ZfwrLc+hC3YOi9wea2jG2FZbtmFo43cgIAQFh2OvTHacl6A500a1iuzeMMuN1ctTp/WC5/xvID4dKbiyBsvcFPfCLGelher1lTDMvD+FLYnlH3Rr9FYP37RXBdC7nDyvJqtbkPw3FbRFtYzmz5iHPJgD68edCeezrvp2Fcf+0psx8AcBwIy06H/jiNDOFzae2j4yohdwjcozkGMqy6PhJOX0uiPxrOqjM+DcMVlod9y6X/tKILw1147en/dW/to+WMmjXFsJxC+kIpcM8mBWD5cXEr/admDMF24Wd/LVajh5pl8F0j51wF7SiOT0F9fTVbzrGga1p49is/8Xoflq+/Hh63+gEAR4Gw7HToj9Ou5Vac+/YhjK+9mW9QW/2ew4b/g98kXVgurBx32zi2+d9hHwvv/+B3Ljz/NmEZAI4dYdnp0B+nXVv7lAurfVgtXgvLufaZdf9Mv8XAfOHlcTC2P0EjsbZ/YIr+++rYqzysLPM5ywBw3AjLTof+OO2e9WkYC2p7hfVpGC17pjfVBavqCuRUaR/yIBOUl1s6skEabt32i0pQPvtieLvbfnE9fOcJox8AcFQIy06H/jgBAABgHWHZ6dAfJwAAAKwjLDsd+uMEAACAdYRlp0N/nAAAALCOsOy0j48TAAAAtouw7ERYBgAAOD6EZSfCMgAAwPEhLDsRlgEAAI4PYdlpf8Pyo+F7X/xl+PUTC1+8yv/uBgAAMCPCstP+huVkCM0PfsvoAwAAwBSEZaf9D8sLn3wn/PqJd8I3rT4AAAA0Iyw7EZYBAACOD2HZibAMAABwfAjLToRlAACA40NYdjoVYfkj3wo/fuKX4Rf3PWr0AQAAoBVh2el0hOXeNx/sP0rux5+0+wEAAOBDWHY6FWH5Y1fDLwjJAAAAsyEsO52KsMyeZQAAgFkRlp0IywAAAMeHsOxEWAYAADg+hGUnwjIAAMDxISw7nYaw3H0KxhevhgtGHwAAANoRlp32Nyw/Gr73xf6j4lhVBgAAmBdh2Wl/wzIAAAC2hbDsRFgGAAA4PoRlJ8IyAADA8SEsOxGWAQAAjg9h2YmACwAAcHwIy06EZQAAgONDWHYiLAMAABwfwrITYRkAAOD4EJadZg/LL344hF99oPObF41+AAAAnDjCstPsYTnpQvMHw8++bPQBAADgRBGWnbYWlj/y0fCz9z8Qfv/djxp9AAAAOEmEZSfCMgAAwPEhLDsRlgEAAI4PYdmJsAwAAHB8CMtO2wvLt4YXvvvBEH714fCW0QcAAICTQ1h22mZY7nz5hvD7+FFy798QXrD6AQAAsHOEZadthuW33iEkAwAA7CPCstP2wjJ7lgEAAPYVYdnpJMPymeeuhbeuvRveevlpsx8AAADbQVh2OsmwfNPFN/qwfO1auHS/0Q8AAICtICw7nWhY/sgD4dKbMSy/ES6Y/QAAANgGwrLT1sLy8CkYv3nR6EuGleUrzz1g9wMAAGArCMtOs4flFz8cQvyouIX8qvLT4XK3/eLdcPmi1Q8AAIBtIiw7zR6WAQAAsPcIy06EZQAAgONDWHYiLAMAABwfwjIAAACQQVgGAAAAMgjLAAAAQAZhGQAAAMggLDe68dkQPnQl+m240egHAADA4SAsT9SF5pfeD39i9AEAAOAwEJanuvv98EdX/hBuuNvoAwAAwEEgLE9FWAYAADh4hOWpCMsAAAAHj7A8FWEZAADg4BGWJ3sp3PBSCB969odGHwAAAA4BYXlDf/LYH7qPkvujx14y+wEAAHB6EZYn+2H4Y0IyAADAQSMsT8WeZQAAgINHWJ6KsAwAAHDwCMtTEZYBAAAOHmF5KsIyAADAwSMsT9R/CsZvw41GHwAAAA4DYbnRjc+G7qPiPsSqMgAAwMEjLAMAAAAZhGUAAAAgg7AMAAAAZBCWAQAAgIwuLP/rO86EfzWDueaa85oAAACAqQjLAAAAQAZhGQAAAMggLAMAAAAZRxOW//f/+Zfh/zr3jNkHAAAAWI5nZfmet8P/9QSBGQAAAH7HtQ3jM9fDr5/4P8Nb9xh9AAAAgHJ0e5bjdoxf/y9vhyeNPgAAAEA6vjf4Ddsxrn/G6Os8G/5/16+H69f/j/C02Q8AAIBjcXxh+Y5nwlv/S2nvMmEZAAAAvSMMy2zFAAAAgA9hGQAAAMg43rD8P/9/zT4AAAAgYc8yAAAAkHF8Ydn9aRg/DN/6K6sfAAAAx+LownJ9v/KF8K2/i2H5evi7b10w+gEAAHAsjisse/8Hv6/+H4RlAAAAHFFYHrZf1Pcqp5VlPmcZAADg2B1NWI7bL2pB+ek3+u0X1//ub8NfGv0AAAA4Lsf3Bj8AAADAibAMAAAAZBCWAQAAgAzCMgAAAJDRheWP/Pf/Ktz0kVs3Ntdcc14TAAAAMBVhGQAAAMggLAMAAAAZhGUAAAAgg7B8DP7i3fDA3/3f4S++bPTlDGP+zd/9Y/hzq/8kfPKd8Osnftn58SeNfgAAgJkRlk/So1fD53/0k/Dxzxp9czqEsPyxq+EXhGQAALBjhOWTtM9hec9cuO/n4ddfvBouGH0AAADbQlg+SYRlN8IyAAA4CUcVlm995b1FOE2skPq1cPey36j57Kvh013b+fDx74u6V74m5ohUf/T9V8PNQ//4OhRR5/e98Bfdlonkv4S7/0L0d2E5tn0j3P1dUffvvifmuDX8+b8Tfcl33w1/JmpOCmEZAACchCMJyym8Xg23yrZXRDDtgvB74dNfPz/03xpu/vpPugB796PjmlFbtzosjhe6MOwJvXOsLA+rxg/8zTeWbX/2N/+lC7rLleTl/uP1ttJqcxeeCcsAAOCIHUVY7kNvOZTaAXcI2WnleAjLMhin1ehVyFZjSmYIy3agHVaQ08pxJhh3Y9XqsjQ1LD9z71fC7y4+ZTv3KXNM2aPhe1/8ZfjFfY8afQAAANtzFGG5vtLbB1y5qpx0QTuNdYXlhWG1ubqtYuOw3IdiuaqcdKvLKehmwvKoxnDyK8t9SP71Ez8P3/uY1Q8AALBdhOXOzGE5Eds2xltABicclmth+OTDcjKE5ge/ZfQBAABszxFtwzDCqjDfNgyDOW7hRLdhqBrD/mzDYM8yAAA4GUfyBr/hUy5GYXgRhOUb/IatEzL0ru11nhqWc6F4mK84tubL/9i9cW/9DX7iEzGMsLxWY9iflWXCMgAAOBlHEpajYZU4huZOPryuatRqtCssD8F8pLB6PIT0peJ2kYwhDC8/7m3tf93THy1n1awjLAMAgGN3RGEZrbqwXNimsUuEZQAAcBIIy+jF1WkZjDNvCjwxn3wn/PqJX4Yff9LoAwAA2BLCMpb6fcyrrRp7E5QH3eryIjATmgEAwK4QlgEAAIAMwjIAAACQQVgGAAAAMgjLAAAAQMbBh2WCNwAAAKYiLAMAAAAZhGUAAAAgg7AMAAAAZBCWsXTHtx8Lr/z0q0svfPsTZt223PhsCB969oeq/aVww0sh/PFfyrZN9XN+6MrCS++HPzFrAAAACMsn69Gr4fM/+kn4+GeNvhN1Jjyz47D8J4/9YRFefxtuNPpu+svfdsF2rsDchXJCMgAAcCAsnyTCcq8Lw38IN9xt9A2KYbrJD8Mfzxi8AQDAYSMsnyTC8kIfXv/osZeMPmnYOrG2TaMVYRkAAPgRlpt9Ldz9o/cWIVcbh95bXxn33/1ovm/k+6+Gm4e6uk+EL73z1fDK1TNrfWevxn3HD4ezy7ahdtiPXN6TnA/L3bzvfC7cIdr6vc7yXJE+32PhSw/L/kG3quxcMXasQNcRlgEAgB9huckQlF/52rLt5q//ZBFyZVA+Hz7+/XHNTZ99NXx6MU4G5s4MK8t9UNVBdD3snr2qap59uAuxzzwr2pY2DcvG+O5864G5bf/wHEGXsAwAAPwIyy2s0KvbugB8Ndya+gfdarIM0NEs2zD8wXQsH4g3DcvdsapJK83jOfutFfUtGMkMWzFaVrIBAMDRIyw3ya0sr8Jxf7yosegtFjPtWdYBtjvWWzMe/lx4YRGAV9sietsIy12NOs/S6Lq8+5WTDcLy8Ikam+95BgAAx4Sw3GTYYjEKweOwq8Nz0Vxv8OuCcFpJ7oPuaHtFCsqjoLq9lWWrxjZtZdlfb5hl3zMAADgWhOUWmS0WIy0BeK6wLLc4xC0YOqia2zK2F5b1cQl7lgEAwD4jLLdwhdu0+uxYXR72O3/66+ft/gZpn/CXFmF2LeQOK8ur1eY+DMdtEa1h2Q7GcS4Zjof5PavLLSu9fBoGAADYMcJyo9zHvo0Dr7Vdw/g0jKgL4KKu6aPjpBSA7RXdVajtPfPs+hvu8nuN5ZzqI+Hi1o5u5VqfdxXIV6w3Hfbhtb6XeIY393UIywAAwI+w3CC3H7lvn2M7xZFyrBjzP/gBAICTQFhu0K8qr4flXDv8ur3LucA8fJLFPAF3WKF275MGAADHjLDcxN5eMX3rBKQuMK9ts+jD7bwrwcPWj4jQDAAACgjLAAAAQAZhGQAAAMggLAMAAAAZhGUAAAAgg7DsROgGAAA4PoRlJ8Ly/rjw+CWzfRfmPnduvm3cR8+c23xs55y7Za5S7ZRrssbMed9a1M7bcl26dup92uVjMfX+T7lGa0zrPKX62CdZNZq3blO7Os8+mHpfc+OmzGeNOabvwT4iLDsRlqeJv+A11riSKWM8vNc15/lzc815jsQzp6yJt3PkGK/WcaX6lrnSNUulvkiO16z+2phtKp275bp0bTzWZH9OqtNjJT2mVp9YY3SblOuvjbNMOb+W6uNXTdd6TBmnz2uxxui2QzX1vubGTZnv2L8H+4iw7ERYnqb2C17qj31TWfPVyHGlOabOr81xjlinWXVRqS+Zq8YyZVxujHcuWafHlPpKYq2HNXYbcudqvQZZb431zFebo9SutZ5Pm9qXE8d4WGMj3SePS32ybSo9l1Trjzw1h2LKfS2NmTqfhzUW20FYdtpFWL79wcUvwIP3mn3JLfc9GS48ci7cYvTto9ovdOsv/KQniNvOhYfik0v3uN0Z7nkkPtE8Ge65bVwn59a3S1Jd795wtms/H25fHHff08Xx2btkTX7OUr8cL+tKx1KpL0r93rpWU8blxnjmmnqdJZtczz6S151uW/fFc/90TTzOkXWWUo3sy9Wl82ilfjley/XXxklWrWxLt71ztpw7pzSHdW3b0r2uLc6RPHTfnWbdLrTeV3ndUqlfjtdy/bVx2C7CstPWw3IX6NYD3FgfxHTw8ktBcZM52kx9YsiZ9oQxBNjhD5E+wLaF5XS7bniMhz9o0ouAFZblsWwr9dXa5RwlckyS2nVtiR4/lZzHo2WMPleJNV7K1XjGzkles5c1T5T6dE2u3SJrauNq8+n+0nHLOVJbqS+n5TwWWecdU7PpPHp86Xiua67rn6t3FZbj/fKyxkdWX2or9eXk+mvjsF2EZadth2XXivFd5xe/MP2Kpdlf0Ie2RUC8L85xOsNyrC2xxvSssLz+OObm03Pr4zErLJeDuW4r9dXac3VRrS/1y7rSmBZy/jm0zOWtrdXp+5COLXLctuXO572OVGfVT7kvcr4cPSbJ9cn23G3Jak9tpT5L7JP96dgix5Xqc+2SnkeS/XqcJMdIuT7Znru9XbsPy1PbklL9lLlkfzq2yHHYPsKy03bDsmfFuA9hk55EYshOQbwL3Kc3LFvtUXmecVjuA6wdlmu3reOxcVjuH29/WM7N7W3P1UW1vtQv60pjvKx5S2KdZLXl6LlaxkbW+ETX5Opr88xtruvQ9fLYO1frOaU4tibVyTHptmS1yzmsPqs90uOmzJFYNZ5xWm1MqT/21aQ6OSbd3q7DCcu5MbW5ZP+UObAdhGWnrYZlz4qxa5uGwykNy7GuVOudp0TOkbttHU9hzTHlnLFds+qiXF9qt77mpLEeqb51XJQb0zKXt7ZUl/pkTbydk2p2IXe+1utI9dZ98Mylx6XjHDnWomvSsWzPzWO1l8bV5tFjc1KNJddfG6fVzjVlPutYtq/POSwKGO+xWf+Xu6F2MUeSD8P5sNzNq/711V740OfLv27G/qltSa1e9+fmSu16bE6qwW4Qlp22F5bzTzqS9UQxyQmE5RprnJRq9DhNj2sl57Bup/NIqaaVNVeka6zbUsuY3BxJ6o9fW8fmyHFT5siNaZkr1nrlxtduS7n2bZnjOmJtqb42V+r31nnkamV7qcaia6zbVlutttQe6b547CHHpHHyq5ZrL/HMZdXYW8zWw+7tD6qa4mvQpmHZGJ/5173Iul/etiT2WXSNddtqq9WW2rE9hGWnrYXlnbyxTzhlK8uyv1Rbm8cjziHJdl0nj6ew5iidJ3fO0hh9nJsjSf1WXW1sTsv5LbkxLXN5az11sibezpFj5madzys3n/5aY42Xt2VtSRpnyfXLdk9Nrs0zT6Jrc+SYUr3sk7Ul1rg0X00aZ8n1y3a7pi2YruQD8aZhuTteW1TqF6SsOa375W1LPPXyuDRXpGtz5BhsH2HZaVth2bNibP9T00SOsLwvv4j6OkrXNcc1yzlyt63jKaw5SvPm+mrXJo9L80epP3710nNIur9Wb8mNaZkr1npZ4yVZk6v3zDOnqdcR+2VNqb42V+I5p9WexP4cWWPdlqz2XG1U6oumnjMpjbFYtVKuxjM2kufSZI11W9KvX92x/lfS9NGdyjbCclejzrNk/OutWZehxyZWX2u9JPtztbU5MD/CstN2wrJnxTj/V/EkzpXlWDPXL+Rcv/DpmnKsMS3kHLnb1vEU1hyleXN9LddW6otSv1VXG6vNMUeUG3NSc8naeDtHjtE8NS1yc7WeQ9brsd65SnPk2nJytbVz5NpL5y71RfqcOXJMTarX4zzz5GparyHyzJWdd/Qvo8brWQrKo6C6vZVlq6bEul/etmSOekn2x9s5cgy2j7DstJWw3AXXyorxXG/sSxq2Ycz1S1mao2X+uebJkXPkblvHU1hzlObN9cV2zaqLSn1R6td1ufacXJ13vJQ7t2euWDOVNV8k+3J1pfFR7RwtSvO0nkPXy2PvXKU5rOMST22uxmovzVc7l+xvOacWa1KdNadnjihX5x0vecbka8RiTnxt0UG1e73Rr1/bC8tz/Cts62No1ZfmqM0v+3O1tTkwP8Ky0/xh2bdi3D1BVN7816QhLEeb/lJ6xnvPUarb9DojOUe6bc0717ksVm2U69PtU+ZIrP6W+aNNzm+JY6xxU+dqabfI2k3mazlnSWme1nPMMVetruWaYq1m1ei21G6xaqNSXyT7c7Wl9kS2yZpcW06utmWOJI7RrBrdlnQBdRFi71m8Vq29ng0ry6vXmz4Mx/law7IdjONcMhwP8zesLmul+2rpr2GdVRuV+iLZn6utzYH5EZadZg/LrhXj/hffG2zzVk9QazZ4UqmJ81vtFk+tVZPaWs6VI+fQ88avOWlMC2ucbkvHU8+ReOfJnV9rvR7v+S1zX4OlZa5Y2yI3h9XeqjZP63ms+tTmnStX55kn9mlWXZT6cjVWu26rzSHFmhbWeOt2Ok5t8naJNYfVbknnkKy6KPWValavL/aK7irU9s7etb5QlN9rLOfsxy374iKS+a+z1uud/19nY73VnmPV67Z07Jk71rSw5sD8CMtOc4dlz96qOf5J6aS0/hJ76nM1czxhyDni7UTWnIS5rsEzT6rx3HdPjdRS6zHnuU/yfkzluY7Wa83Vz/X4zH3NLbU53jnmOJcW58zNW+qLrL5Svbat2kOwrfvrnffYHu/TgrDsNG9Y9qwYz/zGPgAAADQjLDvNG5YBAABwGhCWnQjLAAAAx4ew7ERYBgAAOD6EZSfCMgAAwPEhLDsRlgEAAI4PYdmJsAwAAHB8CMtOhGUAAIDjQ1h2IiwDAAAcH8Ky07bC8jP3fiX87uJT4XfnPmX2L935V31d8oWz4Rmrzumtdz4Qwjs3mX3ShZffDW+9eTmc0X0X3whvXcv0nYB4f37/3Y+afVN1j9Gvog+Ht4x+AABw+AjLTicalm87G/5pUfPenUbfBC9894PuALjtsJydv9WXbwi/XwTbuQJzy2MEAAAOF2HZaVth2aML1BuuJC+9+OFFCPxg+NmXjT7DbGE2Y9b5G+9b3kfDz96ff6UaAACcPoRlp5MMy6+e23zbRe+m8JvG1ddTFZYXuq0T798QXjD6/AjLAACgR1h2mjssL7dfDP7p3jvMumi2sNytvFa2FqTtFZIMs7r/5afX5/jI0+Hyou/yxVvDmeeuifo3wgXRP5pHuPLcA908/dhr4dL9av77L4cri7o4/6g9GrZj/OZFo8+NsAwAAHqEZae5w/LKp8J7VljWb+hTpuxfrq26WuE0v/L7QLj05qKvEJa78Lsca9eXV5b7eVJ4TrrrzI6ZI+gSlgEAQI+w7LTzsCzMs7JcC4B2MN0oLDuCcW0bRte/XJGO7OuUNt6K0a1Oz7H3GQAAnHaEZafTH5Yr+5W7rQ3rWx42CculQJvUwvLalotuG4gMz+smh+VhC8fme54BAMChICw7nf6wXFlZ3tewrM4T62vzdmHZ8RnSWbPsewYAAIeAsOx0+sNyZcXVfNPcEFRPNCwvLFeT47zlVWX2LAMAgDkRlp0OISyXP4dYB+PheBF6txmWs594MdLP112LeT6BT8MAAAAzIiw7zR2WuwC8CMnr/iq8atXOEZaHfcv5LQoilC4sP/pNhOU+3K5qVmTg9YflqFtdFnNZ43yheoY393UIywAAoEdYdpo7LJ+Y2f6Xu90qf1zcgP/BDwAAzIyw7HQwYXmhW309TYG527NcWVUetl/MFXD7x6jyH7gAAICDR1h2OqSwHG38iRE7sNqe4dt+Me9KcL+6HOK2FUIzAABHi7DsdGhhGQAAAHWEZSfCMgAAwPEhLDsRlgEAAI4PYdmJsAwAAHB8CMtO+3hNAAAA2C7CstM+XhMAAAC2i7DstI/XBAAAgO0iLDvt4zUBAABguwjLTvt4TXPr/kvp7j8B6V157gGz7jh8Inzpna+GV3668syz63V3fPuxUc0rV8+s1Zxuj4bvffGX4Rf3PTpu/9jV8Isn3gnflG0AABwgwrLTPl7T9jwdLh95WD57dRF83/lcuMPoW3r24UVAfix86WGjb2a161kL7TOF928++Mvw6y9eDRdyfQRmAMCBIyw77eM1bc+xh+Uz4ZlF0LRWkqUuwO5oJdkXlh8OZ42+qS7c9/NKGO5XnX/94LeMPgAADgNh2Wkfr2l7jjwsP/y58EI1LA/bNA41LHfbLH4ZfvxJo0/y1gEAcEoRlp328Zpu+sgD4dKb74a3Xn56re/Cy3Hf8Rvin8+H2mE/cnlPcj4sd/O+eTmcEW39Xmd5rkif71q4dL/sPwl6H3JmC8VcYXmYZ3m+XNjttnOs6l749ieGvn6FW/ZJqzpfWF6uhI/OZz8G3apyZvuFVtqqEX3m+R+E69evh7efP2f2AwCwzwjLTvt4TVEfVHUQXQ+7F15WNRff6ELs5YuibWnTsGyM7853koG5D54yYI73HK+/oW9kCLrZvcEdETyN/czW6nCaTwbzO7798FqAnWNluZsjXudynuE+r83buL3ik+8Ut2sQlgEApxlh2Wkfr6k3NZjmA/GmYbk7VjVppdk+X86nwnsXnwq/M30l/PA2a4ytC5NrobAPi6MAHW28slyaVwTo4TxrdQZfWB7CsCDvQz6s65D9rfDjlq0VbMUAABwwwrLTPl5TogNsd6y3Ztx/OVxZBODVtojeNsJyV6POs2RsGdmF5aqqRQfejcNyefvEct6GT9OYbWXZE5Zbwy9hGQBwwAjLTvt4TUtdEE4ryX3QHW2vSEF5FFS3t7Js1Zy0WtgcmSksV1eM9zUsT1pZ/nn43seMPgAATjnCstM+XtOK2OJw8Y31oBrbHPuaPX2esKyPp5t5G0YlTC7NtA3D7hNc5+ntNizPu2cZAIDTjLDstI/XJKV9wpcWYXYt5A4ry6vV5j4Mx20RrWHZDsZxLhmOh/n3anV52BrhWV3eOCwvDJ84UVtd7gKsWl223uDXh9r8KvS8YXnxR1H1M5ZXvJ+Gcf21p8x+AAD2GWHZaR+vaSwFYHtFdxVqe5cvrr/hLr/XWM6pPhIubu3oVq71eVeBfOUkPw0jsvYSGwF0jrAcDYF5xAjrfWBd1eQCdh+s7bq5w3Lah7z231xrnv3KT7zeh+Xrr4fHrX4AAPYYYdlpH68J2Kb5/ge/c+H5twnLAIDTibDstI/XBGzXEIYzgbnbfuHZqjGsLPM5ywCA04iw7LSP1wRsXx+Y17ZjdNsvKkH57Ivh7W77xfXwnSeMfgAATgHCstM+XhMAAAC2i7DstI/XBAAAgO0iLDvt4zUBAABguwjLTvt4TQAAANguwrLTPl4TAAAAtouw7LSP17QPLjx+qXiMvPhYtbLmyWmtx27M9X3Zp5+HqXNb46bMlRuzzftcUjpv7JOsGs1bt6naeXL9u7q+fTP1fs/5OFpjjvX7sU2EZad9vKZ9oH8p47Em+w+Fdb/0/bZqJN3feixZfaV6rIuP11TWXLotKfVZtjFX/Fqjx5a01ie5cXOdv2WeWOtljZdSjR6X2ltNGafPa7HG6DYp118bd6im3u85H0drzLF+P7aJsOy0j9e0D+Qv5bH90ur7VjvWYn8ra55E99fq4TP1ccyNmzLfnHN5lM7Xyponkf16nCbHaVZ9SW6OqW2S7pfHpT7ZNpWeS6r1R6WaqX2HbMr9nvtxjGM8rLHwIyw77eM1Zd12Ljz0+JPhntuMvqV7w9nFL9DZu6y+MvmLl25bv4ytv6C33PfkYsz5cPtaX3+tF6r3abf0/asde801buo8q8c7aXvc++/javxD991p1p0W8T5Y7TW5cfKxkazaJPXrMTm58V7brk+mjpNKc7TMb9V626TamHS7Nk/irSspzWFdmxbbLaV+OX5Wd50fn+vBe+26HWi9n6PrFkr9cryW66+NQzvCstM+XlPO7Q8ufskqTyBdoHnkXLjF6PNIv4z6lzLX7rH1sNw9yW4vcOcei5zY38qaJ6e1vndnuOeRxblmeQHqv2/HGpYtubm2/b2duz7211jjIqs2Sn1WvW6TSv21sZL33N7ztZy7ZNN59PjSce5cVntqK/Vt15zPVXXxPnlZ4yOrL7WV+nJy/bVxaEdYdtrHa7J5Voz7J5lNQswmv+A5+bA8ky2G5dKTVmL1W1ofP3kOD2uOJde/SngRliM53ppryvytY3R9PNZ0vzzWNu1PrDrZ5jmPrq+R4yWrNsc7Ptcu6Xkk2a/HSXKMlOuT7bnbktWe2kp927X7sDy1LSnVT5lL9qdjixyHaQjLTvt4TRbXinEXGucJpfoXUR63/pKehrCcnnyS1KbrWug5Lda4ktyY6lyz/kFxeGF5k+9F6zyxRtJ98rimNr51/k37k1QXv3pY42W7rqkdS1aft02bOk6rjSn1x76aVCfHpNuS1S7nsPqs9nkdTljOjanNJfunzAE/wrLTPl7TOt+KsWebhlf6RdS/uLIvq1vF7MetyLCctl9YfYm4z13QS7WrwNfd39E8QvrDYhi7viKfD3yxXt7OkWMstRrPHFpuTHWualgeXqAW8yT5n7dKWB59v3rrj78+31xB3i+et3Rckmo3mSOyxltkjaT7Wo+12F9jjdNydZ7xqUbW6nG1Y8nq87ZJuf7aOC3Wl8ZMmc86lu25Oa320jh93D0HG4s4/QLJ+He6bxM/S9nFn3xYts5nL8b4n19i/9Q27xy6PzdXatdjc1INpiMsO+3jNa3xrAoOAXXKG/u02i9i8ZfUCKelleV8n3yyW/WbT87FxyfzxNuNsa9J3z/r/hYfg0F/7WXWuJI0Ro+159J/lCjiMbn9QfX4Gd/HlUJYdv0cGuM9P+Mzi/fP02bJ1XnHJ7q+9Zpq4z3zS5v2J7HOqvWOj2Rtmq9EjpWsPm9bovvisYcck8bJr1quvcQzV6nGomus2x3zecJ4zl3UjZ8vhucmc3Fn07Dc9vyydp8a2pLYZ9E11m2rrVZbakcbwrLTPl6T1j1BmE8qK90TRvYvdb/0Cyi/1qzG209yG4VlzypCJWj1Y2R//sk4Gt+n+nFOrc47T1K6jupczWG0EIhLfY7z2D+r/ffEPt925B6zUnuS65dfPXStNbY0X228Z34p9tdY4yRZJ8eV6DnSWKs9KvVp8jw13vGyT9aWWOPSfDVpnCXXL9s9Nbm28jzGc6lz4Sa3Kl16fvaE5dbnF89jkGtLPPXyuDRXpGtz5BhMQ1h22sdrGpm6UtdI//KVfhHzff116Gs1A261rxxoR6oBTT0+3WOar7fun/exkWJdjTUuR9fL4+pctcdo+DlL15XYP1Oln7fh+zaMt35uuxe8oX+N5/s9k3i+lvakNq42XtK11tjSfLXxnvmlTfpjX+q36nRbaa6oVF8bK1m13rYk1xfbLVatlKvxjI3kuTRZY92WrPZcbWT1tYTVOH5kC2G59fnFrMvQYxOrr7Vekv252toc8CEsO+3jNUn2E4/SBSE7jE5V+mXN/5Lua1geP8l25yzMm+6f9Rjk7/u6Wu1O5yo9Rikojx6TUiAu9a3IFy1Za73glaQ5rL5NTJ3TGqfbvHOnOv1VKs2l++KxpvvlsabHWqxxmq6zxtXmKo2pjZW8526ZM8pdi2eeXE3rNUSeuVrOV7oGu08+7/fP2+PnhhSUx8/z+eeBGcJy4/PL1LZkjnpJ9sfbOXIMpiEsO+3jNa1YTzzruicHT6hsoH8R5XH+l9QOUd31nXBYXq0mx3nLtbknovz9tqV5SqxxmqeuWlN6jMy+zcNyol+8Sn88WVoeqxZT57TG6Tbv3LEu1ebGlObSfa3H2qb9iVUn2zzz5Gq815DUrqXUpsWaVCfrrbaSXJ13vOQZ03K+0ny5vuVrUPc8q3+3C68LWwjLrc8vFs9jKs31OCayP1dbmwM+hGWnfbympS7EVH7pK1sKppr6i66DcX88bpNmCcvDymg5vA3zxWuprDpY9y+1le67Vqv1zOU9X7XOsbK8+heB/sUtzrl5WLa+j8P8G67+bGrqnHpcbh7P/LJmyjyec0i1+k37k1xdbN9kjtS2yRy59lJtIttkTa4tJ1fbMkcSx2hWjW5L7RarNsr2Da9V98Tn87Xn7PXngOXrQmNYtoNxnEu+hrQ/v2ilx8DSX8M6qzYq9UWyP1dbmwM+hGWnfbympHtCqYTF7sligyeFHOsXMbWVf0lFKF3oApUO/UM4SzXSKoDlnzBN3TnEXNZjMtRY+2hz0ny1Nt03hTWXbpNSf62uUwrLC6sXnd7Zu/rHXwbi1R8+mvXiJZjfw1UgX7GvL/bptjlMnVeOq83hPYeuS8dzz2/Vx7aprLnkV9ku2/SxxZpDH7fOYbWn26W5rHp5LOfQ/RZrDqvdks4hWXVR6svVWO26rTZHLz3vl/8gj3N0Fs8J+rXLfO7oyDnHry/dc4t+fen4n18ssd5qz7HqdVs69swda1pYc8CHsOy0j9fUWVvts7Ss8LXJ/QKe6l9M80nV5nkS8tRM5Z13W+c/Bps+dnN9j3L9nvlb7kNL7SbkeeLt0nk9fZ45rJrSGK2lNrHO6emLrL5Svbat2pw55jhNtnV/vfMe2+N9kgjLTvt4TZFrxbgh/B091x8fAADgWBCWnfbxmjAf+U97BGUAAJAQlp328ZoAAACwXYRlp328JgAAAGwXYdlpH68JAAAA20VYdtrHawIAAMB2EZad9vGaAAAAsF2EZad9vCYAAABsF2HZaR+vCQAAANtFWHbax2sCAADAdhGWnfbxmrLuvxyuXHs3XL6o+x4Il958N7xl9h2Tr4W7f/Re+PzST8LHP2vV2W7++k/E2PfCp79+3qwDAACnH2HZaR+vKWvbYTk7/2lwPnz8+4uQ+8rXjL5WfegmLAMAcLgIy077eE1Z2w6zpzksf/bV8OnGleQ8wjIAAIeOsOy0j9eURVjOe/Rq87aLPMIyAACHjrDstI/XtLLaXiGtwqzuvxYu3S/H9848dy289eblcOYjT4fLYp4rzz2w6hftY2+EC908w9iXnx7NHV14edHezT9u36lqWB62aQz7kct7kithuTvXeK67H9V1+ny5azsXnn/7erh+/Qfh+bNWPwAA2AbCstM+XlPPCKelld+LbyyCbSEsD+F3Odaqr6ws9/Ok8Jz013kyq9H6DX2K2L986ysqrA6Bdz3kRoWw3G33yI1LjPHZME9YBgDgJBCWnfbxmiIzmG4Ulh3BuLYNY+hPK9KRHaBrPhXeu/hU+J3pK+GHt1ljKpq3YZRWjwt9jvN0n6rx/VfDzaP2fqXZPh8AANg1wrLTPl5T1G1t0FseNgrLjkBbC8sL4y0X/TYQGZ5PTC3EDivCevW5OSyr7RXWCvOtr4zPMTLLp3UAAIBNEZad9vGaon0Ny6PzdPWtq8pbUgrLKSiPgurElWVBhmJZ27WvrSwDAIB9Qlh22sdrisw3zXVB9YTDslhNjvNOW1Xe8TYMs2/zsJzocNz/5yZXw62iBgAA7BfCstM+XlNHB+PheKthufCJF1I/X7wW+3wnwrGyvNoy0YdhvSK80hKWrf8MZZjftbqc3uB3PXznCasfAABsA2HZaR+vKVmF0rTKrD95Ygi3FhF4/WF5YVhdXs1ljfOF6p2q7FnW/5X13Y+uv+Euv9d4tUqs5+mY+5BXgXzFvr7HX+vD8vXXnlrrAwAA20FYdtrHa9p/J/lxcQfo7IvhbcIyAAA7RVh22sdr2m/Df4SyT6vKp1y/ssznLAMAsEuEZad9vKa9JLdnEJRn8Znnf9Bvv7j+enjc6AcAANtDWHbax2sCAADAdhGWnfbxmgAAALBdhGWnfbwmAAAAbBdh2WkfrwkAAADbRVh2IuACAAAcH8KyE2EZAADg+BCWnQjLAAAAx4ew7ERYBgAAOD6EZafZw/KLHw7hVx/o/OZFox8AAAAnjrDsNHtYTrrQ/MHwsy8bfQAAADhRhGWnrYXlj3w0/Oz9D4Tff/ejRh8AAABOEmHZibAMAABwfAjLToRlAACA40NYdiIsAwAAHB/CstP2wvKt4YXvfjCEX304vGX0AQAA4OQQlp22GZY7X74h/D5+lNz7N4QXrH4AAADsHGHZaZth+a13CMkAAAD7iLDstL2wzJ5lAACAfUVYdiIsAwAAHB/CshNhGQAA4PgQlp0IywAAAMeHsOy0tbA8fArGb140+gAAAHCiCMtOs4flFz8cQvyouAVWlQEAAPYTYdlp9rAMAACAvUdYdiIsAwAAHB/CshNhGQAA4PgQlp0IywAAAMeHsOx0yGH5wuOXzPZNbGPOuezztW3bPt33Ta/lmL+PhyL3PZzzZ6Nlrm3/TM0x/7avEcA6wrLToYRl64nW2ybN0V9jjdOscZo1Rrcdi5O+7/L7klh1Ht6xuk6eO0fWS1ZtjjX+tLPup8Uam8h+z+2SXN2UuSI9LkeOkab2SfI8uTHeuQDMg7DsdChhOdJPtNYTr+fJ2JonR9ZJui8dy7GSrLXMVXOayMcnseqiUt+c9PUkVm1Obbw+LpG1tXlK81p93rZj4L3fqU5/1f0eVq1s887Vcs4Sfe4SOU6O0bflmJw0BsD8CMtOuwjLtz+4eNJ78F6zL7nlvifDhUfOhVuMvhbyyVU/0XqfeEt1U+eQx6U+S6m/NO+s7jrfzb9U+X7OQd+f0v0r9W3b3OdumU/W6nG1Y8nq87btq+55Z+bnFK/cmNiuWXWR7NNjNDlOKvW1knNNOac1vjRPVOsHsBnCstPWw/Jt58JDjz8Z7rnN6Fu6N5xdPCmevcvqa2M9Ievbm/DOE+s02adr5bFUqy3Nux13hnseWdyfEwzL8WuJHLMLc51T3w/JqtdSnR4r22W9ZPV525a6P6hqv+u74w3LuccnHsu2XF1qK7HG6WMPOaY2vqW2VWm+XJ++nto11foBbI6w7LTtsOxaMe5eZM+H262+DczxZJue1Ety43LHpb7W9tK823HyYdmym/ven8fLGu+hx3rnqo0rzRP7vKzxnVMelqfc1lKf/qpvW8cepflKppyrJM5X4hmTa0/kWADbQVh22m5Y9qwY9+HrofvuNPp8rCfaEs8cVo2lNF/uuNQn22r0WHl7e447LFtazh1rc2SNHiOPU1vrOH0sWX3etqUDCMvyWH/V/Zpst2575oltktVv3S7RY2r0WKtP17XYZCyAeRGWnbYalj0rxq5tGvPxPFFbNdYLRWmu2KfJPl0rjy25MaV5c2GhW+1Xj3nfJq43GzIKYdkKS933d/0Ppu7axPmsP6hkf6JrklLftk05d8t98dbG2zVyrGT1edv093JE/hwtnw+Gn6FUs/az1P+RLecx/+AefrZy86z9/It6OV88TrellnbdljuW7dY8khzjocfLsVZfVOrTZG3LOG2TsQDmRVh22l5Y9q1Aeld/5uJ5os7VpPYpc+SOPXNFuTrZvlbThRMdNIzvy6JuvLI/hBXze7dpWDbGZwK1vj+l+7p233doyrlLY1rum+yrXUfLOVvalqzv/1r/4nu/sPx5M38+xn9gW3/cpblGP7eLNvkzNHpuSUHZ+LnV9ykd66+6P6fUn5vTYtXIttocnnPV5pD0uWvk2DRGfk23a1ItgPkRlp22Fpa7F6fCC2dnvjf2eXmefHVN7djincMzV5Srk+3rNf5gquX/iNkwLHc16//a0J1PzanvT+l4/b7PK84/VW4+b3uuNpJ96Xb8qulaTdeXWOM71vd/rV//7PXPAcVtWGs/s6U/5laWP8PDeXPnkPep9bZsy9F18muJVSPbSnNMqavxzhlZ/aktfk1yNQB2g7DstK2w7Fkx7leM5nljn3wCrrHGS1aNbGudI96WZH/6apFjNFlj3U70Y9wdr31fhgAs5u9sISyvbfeQ1Pli23KeyrHu26XWc5eu25qrNL81V25O7zytbUuusFz7A3phCLfaMiy3/MGXxheCdeyXX3W7PtbtUm2OXJulNtfUeSTvHJGsrY2z+lOb7rPmtcYDmB9h2Wk7YdmzYtyHruKK0hZ4noT1k3eNHmv1p6+6Vrfl5Gplu10jvxfWY56C8viPlm2tLLf8gaTvT+nxKvVFsb9WM1XrvLpeHltzleZPffGrvJ2rke2S1edtW5ojLA9BefQzqsNxS1iOP8PWnIK+T+k4d19b2r1tFl1XO84p1XnniGRtvF0jx6Yx8qtuL90GsB2EZaethOXuxakSiLoXPMcq08w8T8Cpxqot9SWlcbW2HE9trqYLDTHcdo+5/r7Y/wy+rbDsCkyDeH80qy4q9UW18ZtomTddh5b6dH2pPbLGpzZJ9lusPm/bUu176/jem39MrYVjx9aNBfkznP5FwwrYrfcz1xfbZV9p3twckneumlKdd46odj2S1Z/a4ld526rJHQOYF2HZaf6w7FsxXgY4o2+bPE++scaq2+SJPDfWO0es06wa3dYZ/ni5JwaGtcd8Pfx235t4jtawrEPNcBznWoWUYbxjdVnfn+z9Wyj1JZ6aKVrnzd2v3Dyl+WVfqS5qnd9qL55j+H5nf/c9fyjpGvNnKBN+F2Plsf6DL/1cj8YsFO+ToVYf+3M1qd0zh/y6idIc3vk3vZ44LpFtssZqs2oAzIew7DR7WO5e3Gorh55tGn7pSdjLmkOyanLjPPNFsk6PyZ1P0zVJ6svXpICa+b6IQNJZBOEujIigkcLJuvGc47oYiK3vdbqesSk/D3Gc/JpT65/Ce24PPceUuXO1tbk87bU5lrqwK76v8g8uT1heWP6x1on1mecLfS71B5wOy/LnTgb60RxOaawm+3Vd7TjXHo895BjJ6kttpXGJronHHnJMTapvHQdgM4Rlp7nD8voL1Lo+UNVXFrdhypN4aYx3vlSXq7favXNHLbWH5iTv+xznzs0x5/d/F+c4FtbjENty7fKrlmuf00meu8W+XQ9wDAjLTvOGZc+Kcb+6U9umAQAAgO0hLDvNG5YBAABwGhCWnQjLAAAAx4ew7ERYBgAAOD6EZSfCMgAAwPEhLDsRlgEAAI4PYdmJsAwAAHB8CMtOhGUAAIDjQ1h2IiwDAAAcH8KyE2EZAADg+BCWnY4hLJ+9+tXwyjufC3cYfVlfviH8/lcfDD/7stFXcv/lcOXau+HyRaMvZxjz1rU3wgWrfwaX/vaJ8F//0zPhP//tJ8JNX/h8+M+L2//17z8fLhm1m7s3/CzOv/RIeM2sm0s6X3+e1/59f96f/bWqe/HDIbx/Q3hBtgEAcKQIy05bCcvPPhxe+elj4UsPG30noD0s3xR+86sPhN9/96NGX8WehuWb/voRESCHcLm1sLzSh/Rth+VPhL//+9X9SX8YrIXlj3w0/Oz9DxCYAQBYICw7EZa1IVC9c5PR5zAlLO+CFZb//b3rdTM7ubD8RPj7L1i1G/whBADAASEsOxGWx1747gdD+NWHw1tGn8upCMtDuDzQsNzf11xYXojbMaZssQEA4IAQlp3mvKYulP40Q4bVLkw/HM4uQs6X3hE1V8+oOc+EZ+QcC888K/sHD38uvCDr1DxrYVnUj+frV5XLq45Ph8vdlonkWrh0v+jvwnJseyBcelPUvfy0mOPWcOFl0Ze8eTmcETU7lQuYw/7mbq/zqHYRTpfyYTgblod5x1sl+hXv0bkifb6NQ37tXw/Oheffvh6uX/9BeP6s1Q8AwOlHWHaa85qWaivLXX8fVl/49hCMhgC7Cq8xSMdAnY5vDXd8+7H1eYe5lvMMbTIEj8JyCsprwXyhe1PfB8JvXlTtybBqfOW5B5ZtZ5671gXd5Urycv/xeltptbkLzycZljNbM9bCbgy5oxq1qqtsGpbXx8+zKt79C0J27zJhGQBw+AjLTicZlseruv0q8ij0amuBelh5toKvsAzLVrCWun+ez2/BsAPtsIKcVo4zwbgbq1aXpZMPy9ODaTYQl/pcYbk/HtcsdCvN9vnc2IoBADhyhGWnkwvLjj3NQ7jVlmF5LTzbRttDCsG6vF+5D8VyVTnpVpdT0M2E5VGNYR/C8lqA7Y7Xt2akj2Yb20JYHmrWzxUV9iR7EJYBAEeOsOy0t2F5CMqjVWAdjlvC8sYry5uF5VoY3ouwvNAF4WEluQu6antFH5THQXVrK8tmzUwq/4oAAMChIyw77WtY7vcnj/cs57ZhFLduLMg9y/28mYBd2bNsB1rPNgxVY9iXsLza4tBvwRgHVXtbxtbC8trxfMp7lgEAOHyEZaethOUh1GZDrHtlWdQMc+qga4bfxVh5PHqDXzo2A3PlUxIuvtG9cW/9DX7iEzGMsLxWYyiF5X58OWzPZ9gn/LcxzK6H3G5lWaw292E4rjY3huVMMI5zyXCc5p93ddn7aRjXw3eesPoBADj9CMtOWwnLURd2+1DaEWHVFZYXRnuNu/p+JXkt5Opz1T467iOrj6zTgb7ft1zYyzqE4S68dvT/uqc/Ws6qWVdcWR5Cei1wzyUFVHtFdxVqOzE46zfcFfYaj+YcfSRc3NrRr1zr864CubDJp2E49is//loflq+/9pTZDwDAaUdYdtpaWD61Nvwf/CbqwnJ25XjYxrHN/w77aDj/B7+zL4a3CcsAgANGWHYiLBuGvctbC8xxdVoG48ybApeM7R+YYvhDyLFXuV9Z5nOWAQCHi7DsRFjO6ALz9j5abLkPeWAH5dWWjmyQhl/cflEJyp95/gf99ovrr4fHjX4AAA4FYdmJsAwAAHB8CMtOhGUAAIDjQ1h2IiwDAAAcH8KyE2EZAADg+BCWnQjLAAAAx4ew7ERYBgAAOD6EZSfCMgAAwPEhLDsRlgEAAI4PYdmJsLzHhv+5byn732EDAAC0ISw77XdYviP88AtPhd+d+5TRd0weCJfeJCwDAID5EJadCMunAWEZAADMi7DsRFg+DQjLAABgXoRlp7nD8jP3fiX87gtnwzMf+VR47+Ii6A7+6d47xrW3nQ3/JPr7MZk+5b07x3XL405/Xnk+zzW9em7RFkP5nX8lzvWV8MPb5Nx1F15ehNo3L4czqv3Mc9fCW9euhUv367ZFfWKM6xXCcreveTzvTfdfDlcW812+KNoWumsT59P9yWee/0G4fv16ePv5c2Y/AAA4/QjLTlsJy0PYXIbYLoCK4KmPF7qwKgNzp7Ky3BKWK9fUnT/WLK9hOPfaNVUMb8obB1Ej7C7qrjz3gKh5OlyOIdZcPd40LBvjM4E6IiwDAHD4CMtO2wnLakV2FGr7EGqvNOuV3DnDcuma7LDej/ur8Kpoq2sLplJuVXrjsNzVvBEupP5Bdz4znAMAgENHWHbaTlguBczxVghtHHznDMvl0DtfWE7bK1bhtDteC8FDAI6rydIWwvLadg8pu/UDAAAcMsKy00mF5bWVZdPpDMtpS0UfVvugO95ykYLyeLV3WyvLOrwDAAAQlp12H5YrAXjktIZlscWhC646qPZhehygt70NQ9UAAICjRlh22n1YXhg+ccKzuty/8S43nw7G/bGe+yTCctonfCmu6q6F3PXw2wXl7LaIQljWwXg4jnMt2zIr2TnpDX7XX3vK7AcAAKcfYdnpRMJyNPqItoEKq71hdVnUjVaSR/PEN/H19ScelpcBNbOiK0JtZxGE9d7m/F7j8ZzjuhiI5TaQJF3P2Lhm8MTrfVi+/np4XPcBAICDQFh2mjss4xCcC8+/TVgGAOCQEZadCMtYM6ws8znLAAAcLsKyE2EZS2dfDG932y+uh+88YfQDAICDQVh2IiwDAAAcH8KyE2EZAADg+BCWnQjLAAAAx4ew7ERYBgAAOD6EZQAAACCDsAwAAABkEJYBAACADMIyAAAAkEFYbnTjsyF86Er023Cj0Q8AAIDDQVieqAvNL70f/sToAwAAwGEgLE919/vhj678Idxwt9EHAACAg0BYnoqwDAAAcPAIy1MRlgEAAA4eYXkqwjIAAMDBIyxP9lK44aUQPvTsD40+AAAAHALC8ob+5LE/dB8l90ePvWT2AwAA4PQiLE/2w/DHhGQAAICDRlieij3LAAAAB4+wPJUjLF94+d3w1rV3w5XnHjD7AQAAsN8Iy1M5wvKZ5651Yfmta2+EC0Y/AAAA9htheSrXNoynw+UYlt+8HM6Y/QAAANhnhOWJ+k/B+G240ehL0sry5Yt2PwAAAPYbYbnRjc+G7qPiPlRaVb7/crjSbb+4Fi7db/QDAADgVCAsAwAAABmEZQAAACCDsAwAAABkEJYBAACAjIMPywAAAMBUhGUAAAAgg7AMAAAAZBCWAQAAgIzjCMsfuxp+8cQvw68XfnHfo3YNAAAAoBzXyvIQmn/8SaMPAAAAUI5uG8Y3H/xl+PWD3zL7AAAAAImwDAAAAGQQltc8Fb5z/Xq4fv318LjZDwAAgGNBWF5DWAYAAEDv6MLyTZ98J/z6iZ+H733M6AMAAACE4wvLnW+FH3cfJfdO+KbZDwAAABxhWL5w388JyQAAAHBhzzIAAACQQVhek97g94Pw/FmrHwAAAMeCsLzmXHj+7RiWr4e3nz9n9AMAAOBYEJYtT7xOWAYAAMCxheX+UzB+cd+jRl+SVpb5nGUAAIBjdxxh+WNXwy+6j4orryo//lq//eL62y+Gzxj9AAAAOC5Htw0DAAAA8CIsAwAAABmEZQAAACCDsAwAAABkEJYBAACADMIyAAAAkEFYBgAAADIIyxg8EC69+W546+Wnjb6cp8Pla4sx166FS/db/QAAAKcbYXmCV889FX73hbPhGaPv9CIsAwAAaITlCQjLAAAAx4GwPAFhGQAA4DgcR1i+86/C7y7+VXj1I3eEH35hEXQvDs59StWq/otfCT+8LfV9Kry3bF/3T/fe0dfddjb80+L4vTvTuNXYZc3CM/d+ZQjc43llTRfK4zV2159q5DW1GMJwt22id/niev+V5x4IZ567JureCBfEPOM+u2blqfCd69fD9euvh8fNfgAAgP12RGFZhdG1ULseaPtx6+G0uLLcEpYXbdGyVp2vO0+sWZ5rCPPNq9rD3mK5anzxjS7oxnDct4kwvayrrzb34ZmwDAAADtNRheVSgF2t9MqaPpyOAvTCfGFZBXE11jpPPy6ukq/aanKB9sLLiyD85uVwpjvOBOMuVOfCcC0sAwAAnG5HFJbL2xeWq7gWtV1jvrBcDr1zheUuFFurw6MgnAnL918OVwqfdkFYBgAAh4ywPCgGYOWownJXQ1gGAADHibA8aAmhpy0sb7INoxaGCcsAAOCQEZaX+kDrWV3uA2tuPh2Mh3lPMCz3WylUEB7e4Lf6RAwjLA/jVm8CXFcOy+kNfj8Iz5+1+gEAAPYbYXlkFWxX7HFdkBV1Mgj355Pj198ouNOw3En/216yvrWiW2ke1eiPl1tXDsvnwvNvx7B8Pbz9/DmjHwAAYL8dR1jG1nRhebmVw/DE64RlAABwahGW0eDpcHkUjPvV6vw2jbSy/DqfswwAAE4lwjLaDHudk1xQfvy1fvvF9bdfDJ8x+gEAAE4DwjIAAACQQVgGAAAAMgjLAAAAQAZhGQAAAMjYy7D8jW98w8UaCwAAAMxlb8Pyjbd8tIiwDAAAgG0jLAMAAAAZhGUAAAAgY6/D8n/48QdC+FX0z8N/ICwDAABgx07FynIXmt//F+F50UZYBgAAwLadjm0Yj/2L8Ptf/bPwD48RlgEAALA7hGUAAAAgg7AMAAAAZBCWAQAAgIzTEZZv+dPwD+9/IIQf37hsIywDAABg205JWO49/+Y/6z5K7vdv/ilhGQAAAFt3SsLyjeE3Q0hObYRlAAAAbBt7lgEAAIAMwjIAAACQQVgGAAAAMgjLAAAAQMapCMv9p2D88/AfRBthGQAAANu212H5P/z4A91HxQW1qkxYBgAAwC6cjm0YBsIyAAAAto2wDAAAAGQQlgEAAICMvQ3LHtZYAAAAYC57GZYBAACAfUBYPiAXHr9UZY07NrnHYRuPz64fc+t8fN8BAJjq1vD/Bzt2sogZ3eGBAAAAAElFTkSuQmCC;" vertex="1" parent="1">
                    <mxGeometry x="-1542" y="1230" width="715" height="874" as="geometry"/>
                </mxCell>
            </root>
        </mxGraphModel>
    </diagram>
</mxfile>